<?xml version="1.0" standalone="no"?>
<!DOCTYPE svg PUBLIC "-//W3C//DTD SVG 1.1//EN" "http://www.w3.org/Graphics/SVG/1.1/DTD/svg11.dtd" >
<svg xmlns="http://www.w3.org/2000/svg" xmlns:xlink="http://www.w3.org/1999/xlink" version="1.1">
<metadata></metadata>
<defs>
<font id="hp_simplifiedregular" horiz-adv-x="1097" >
<font-face units-per-em="2048" ascent="1665" descent="-383" />
<missing-glyph horiz-adv-x="413" />
<glyph horiz-adv-x="0" />
<glyph horiz-adv-x="682" />
<glyph unicode=" "  horiz-adv-x="413" />
<glyph unicode="&#x09;" horiz-adv-x="413" />
<glyph unicode="&#xa0;" horiz-adv-x="413" />
<glyph unicode="!" horiz-adv-x="538" d="M133 119q0 -70 33 -103q32 -28 104 -28q75 0 105 30q33 29 33 101q0 71 -33 100q-29 29 -105 29q-68 0 -104 -31q-33 -33 -33 -98zM164 1104q0 -22 1 -70t1 -76q1 -26 2 -79t2 -80q2 -27 4 -81.5t4 -82.5q5 -69 12 -158q6 -49 48 -49h106q20 181 25 340q6 119 6 334v225 q0 35 -8 62q-6 30 -41 30h-162v-315z" />
<glyph unicode="&#x22;" horiz-adv-x="720" d="M94 1419q3 -75 8 -233q6 -101 15 -187q6 -36 41 -36h110q10 75 11 100q4 37 8 111q4 37 4 108q2 37 2 94q0 43 -45 43h-154zM426 1419q3 -75 8 -233q6 -101 15 -187q6 -36 40 -36h111q8 61 10 100q4 37 8 111q5 46 5 108q2 37 2 94q0 43 -45 43h-154z" />
<glyph unicode="#" horiz-adv-x="1185" d="M100 397q0 -20 15 -35q15 -12 35 -12h96l-31 -303q0 -22 8 -35q12 -12 33 -12h127l35 350h280l-30 -303q0 -22 8 -35q12 -12 33 -12h127l34 350h215v111q0 24 -14 35q-12 12 -35 12h-151l39 379h161v112q0 24 -14 35q-13 13 -35 13h-96l29 282q3 24 -8 35q-7 12 -33 12 h-127l-33 -329h-281l29 282q3 24 -8 35q-7 12 -33 12h-127l-33 -329h-215v-113q0 -20 15 -35q15 -12 35 -12h151l-39 -379h-162v-111zM434 508l39 379h279l-39 -379h-279z" />
<glyph unicode="$" d="M123 1012q0 -79 27 -148q27 -60 71 -102q54 -48 111 -74q68 -30 147 -57l-37 -459q-84 3 -170 12q-64 9 -135 17v-92q0 -48 78 -72q79 -21 215 -33l-12 -164q-3 -41 39 -41h80l16 205q88 3 178 23q77 20 133 67q56 50 84 119q29 71 29 180q0 94 -25 158q-23 62 -71 104 q-45 42 -115 70q-75 33 -152 55l33 439q35 -1 148 -11q85 -7 131 -14v84q0 84 -267 102l13 152q6 41 -39 41h-80l-14 -193q-205 -3 -312 -94q-104 -88 -104 -274zM303 1018q0 94 49 143q49 52 172 58l-30 -408q-105 35 -148 76q-43 43 -43 131zM565 170l33 432 q46 -15 92 -37q44 -21 62 -39q23 -20 32 -55q11 -28 11 -82q0 -96 -50 -158q-47 -55 -180 -61z" />
<glyph unicode="%" horiz-adv-x="1605" d="M80 1026q0 -105 22 -182q24 -73 62 -117q47 -47 92 -65q59 -19 119 -19q54 0 119 21q59 22 94 63q40 46 61 119q23 70 23 180t-23 180q-22 77 -61 119q-39 48 -94 66q-48 18 -119 18q-66 0 -119 -20q-50 -17 -94 -64q-36 -38 -62 -119q-20 -70 -20 -180zM240 1026 q0 129 28 193q29 59 107 59q81 0 108 -61q27 -55 27 -191q0 -133 -29 -192q-26 -60 -106 -60q-77 0 -107 62q-28 64 -28 190zM315 35q0 -35 41 -35h115l807 1323q8 13 8 29q0 34 -39 34h-114l-807 -1323q-11 -18 -11 -28zM936 365q0 -106 22 -183q23 -72 62 -116 q49 -49 92 -66q56 -18 119 -18q57 0 119 20q58 22 94 64q41 47 61 118q23 70 23 181q0 110 -23 180q-22 77 -61 119q-38 47 -94 65q-50 19 -119 19q-63 0 -119 -21q-52 -18 -94 -63q-36 -38 -62 -119q-20 -70 -20 -180zM1096 365q0 128 28 192q29 59 107 59q81 0 108 -61 q27 -55 27 -190q0 -134 -29 -193q-26 -59 -106 -59q-77 0 -107 61q-28 64 -28 191z" />
<glyph unicode="&#x26;" horiz-adv-x="1308" d="M88 358q0 -96 31 -172q25 -62 88 -118q59 -47 135 -70q87 -23 172 -23q144 0 250 50q108 49 192 147l78 -119q20 -29 37 -41q18 -12 51 -12h140q-28 70 -76 150q-42 77 -107 155q34 61 45 82q37 77 45 98q28 70 35 99q13 43 13 88q0 30 -11 41q-9 12 -37 12h-120 q-9 -103 -33 -164q-24 -72 -53 -125q-75 91 -144 160q-61 66 -155 147q148 80 219 166q71 83 71 213q0 62 -18 121q-18 62 -59 103q-43 46 -113 69q-70 27 -176 27q-107 0 -178 -29q-73 -27 -117 -74q-45 -48 -64 -104q-18 -59 -18 -125q0 -89 39 -172q43 -84 131 -172 q-152 -79 -223 -174q-70 -95 -70 -234zM289 373q0 49 14 96q15 43 43 74q30 34 68 57q76 47 88 53q101 -88 184 -174q98 -95 168 -188q-54 -66 -133 -109q-77 -41 -180 -41q-105 0 -181 54q-71 54 -71 178zM401 1110q0 102 52 141q48 37 129 37q96 0 137 -41q45 -39 45 -131 q0 -54 -16 -90q-17 -42 -43 -68q-30 -34 -68 -57q-6 -3 -38.5 -23t-53.5 -32q-57 57 -66 67q-31 39 -45 62q-10 17 -24 63q-9 52 -9 72z" />
<glyph unicode="'" horiz-adv-x="389" d="M94 1419q3 -75 8 -233q6 -101 15 -187q6 -36 41 -36h110q10 75 11 100q4 37 8 111q4 37 4 108q2 37 2 94q0 43 -45 43h-154z" />
<glyph unicode="(" horiz-adv-x="614" d="M127 702q0 -225 57 -430q56 -188 183 -391q21 -28 30 -37q15 -12 45 -12h131q-59 112 -110 231q-51 129 -74 211q-30 118 -41 211q-12 108 -12 224q0 119 12 221q9 80 39 194q27 95 64 185q54 121 88 192q8 16 8 33q0 22 -15 31q-8 8 -28 8h-109q-146 -214 -207 -422 q-61 -207 -61 -449z" />
<glyph unicode=")" horiz-adv-x="614" d="M39 1573q67 -122 113 -232q43 -93 73 -211q26 -90 39 -210q12 -105 12 -224t-12 -221q-11 -92 -37 -194q-27 -105 -63 -185q-42 -103 -88 -192q-8 -24 -8 -33q0 -19 12 -31q11 -8 31 -8h106q83 122 125 211q55 111 84 211q36 111 47 217q14 106 14 231q0 233 -61 428 q-65 210 -180 394q-15 24 -31 37q-12 12 -43 12h-133z" />
<glyph unicode="*" horiz-adv-x="831" d="M57 1100l275 -64l-158 -168q-15 -18 -18 -32q0 -14 20 -31l98 -74l146 242l112 -199q12 -18 27 -29q13 -5 33 11l100 71l-184 209l225 47q24 6 35 17t2 33l-39 118l-256 -110l25 227q6 25 -4 39q-5 12 -31 12h-125l25 -280l-207 98q-21 12 -37 6q-15 -4 -23 -26z" />
<glyph unicode="+" d="M139 662q0 -48 49 -48h269v-295q0 -49 47 -49h137v344h317v125q0 25 -11 36t-36 11h-270v295q0 49 -47 49h-137v-344h-318v-124z" />
<glyph unicode="," horiz-adv-x="512" d="M119 119q0 -41 20 -74q23 -29 72 -41l-80 -203q-6 -15 -6 -28q0 -27 35 -27h92l80 178q41 100 45 115q14 41 14 82q0 67 -33 96q-31 31 -102 31q-68 0 -104 -31q-33 -33 -33 -98z" />
<glyph unicode="-" horiz-adv-x="788" d="M90 514q0 -47 49 -47h559v137q0 47 -49 47h-559v-137z" />
<glyph unicode="." horiz-adv-x="512" d="M119 119q0 -70 33 -103q32 -28 104 -28q74 0 104 30q33 29 33 101q0 71 -33 100q-29 29 -104 29q-68 0 -104 -31q-33 -33 -33 -98z" />
<glyph unicode="/" horiz-adv-x="751" d="M53 -109q-5 -18 2 -43q9 -18 35 -18h141l461 1681q9 28 -2 45q-8 17 -35 17h-141z" />
<glyph unicode="0" d="M88 698q0 -207 33 -362q36 -146 92 -219q64 -83 145 -111q83 -29 191 -29q104 0 192 31q86 30 144 109q62 80 92 221q33 135 33 360q0 228 -33 363q-29 138 -92 219q-59 81 -146 111q-80 28 -190 28q-107 0 -193 -30q-82 -29 -145 -113q-55 -72 -92 -221 q-31 -146 -31 -357zM301 698q0 141 10 258q12 103 39 168q30 68 76 93q43 26 123 26q77 0 125 -29q50 -27 76 -90q26 -54 36 -168q11 -96 11 -256q0 -162 -11 -258q-9 -105 -38 -170q-26 -62 -76 -92q-48 -26 -123 -26q-74 0 -125 28q-46 28 -76 92q-25 62 -37 168 q-10 117 -10 256z" />
<glyph unicode="1" d="M172 1122q0 -37 37 -37q1 0 7 1t11 1q4 1 15 5t16 6l238 92v-1143q0 -47 49 -47h162v1372q0 22 -13 35q-10 12 -39 12q-37 0 -129 -30q-57 -19 -258 -105l-96 -43v-119z" />
<glyph unicode="2" d="M131 51q0 -23 16 -39q18 -12 37 -12h766v129q0 25 -11 36t-36 11h-557q6 84 35 146q25 56 78 116q61 69 100 99q16 14 34.5 28t40.5 30.5l34 25.5q61 45 110 86q46 36 90 94q43 55 62 112q22 56 22 142q0 175 -106 268q-102 96 -330 96q-116 0 -211 -18q-97 -19 -153 -41 v-92q0 -22 12 -37q12 -12 39 -12q29 0 96 12q59 10 168 10q154 0 213 -53q61 -52 61 -148q0 -54 -16 -90q-18 -45 -49 -76q-29 -31 -84 -77q-17 -14 -57.5 -44t-63.5 -48q-72 -53 -131 -109q-54 -49 -109 -127q-39 -56 -73 -154q-27 -85 -27 -188v-76z" />
<glyph unicode="3" d="M109 80q0 -17 10 -37q11 -13 37 -25q29 -10 69 -18q14 -2 43 -6t43 -6q15 -2 42.5 -4t41.5 -4q43 -3 66 -3q230 0 352 107q121 106 121 311q0 127 -53 209q-53 87 -176 127q200 98 200 320q0 170 -104 268q-103 100 -322 100q-120 0 -207 -20q-88 -18 -147 -41v-90 q0 -20 10 -37q12 -12 39 -12q39 0 100 12q54 10 156 10q152 0 211 -53q59 -50 59 -160q0 -42 -10 -76q-9 -38 -35 -71q-26 -32 -75 -56q-47 -20 -125 -20h-131v-129q0 -47 49 -47h78q140 0 206 -51q68 -50 68 -175q0 -60 -16 -104q-15 -46 -50 -78q-34 -29 -94 -47 q-62 -16 -147 -16q-50 0 -164 8q-78 8 -145 18v-104z" />
<glyph unicode="4" d="M78 389q0 -47 49 -47h549v-295q0 -47 49 -47h152v342h127v121q0 47 -50 47h-77v829q0 47 -50 47h-194q-100 -83 -180 -182q-104 -127 -160 -217q-67 -104 -127 -237q-52 -116 -88 -234v-127zM254 510q28 89 68 182q47 107 94 189q56 96 119 176q65 82 141 149v-696h-422z " />
<glyph unicode="5" d="M152 80q0 -17 10 -37q11 -13 37 -25q28 -9 67 -18q14 -2 40.5 -6t41.5 -6q14 -2 40.5 -4t39.5 -4q40 -3 66 -3q104 0 200 27q91 28 150 78q66 59 94 137q31 77 31 199q0 96 -25 176q-23 76 -80 133q-59 59 -139 84q-83 29 -209 29h-143l22 370h533v129q0 25 -11 36 t-36 11h-662l-39 -661q0 -33 15 -45q15 -10 36 -10h240q67 0 127 -13q53 -11 90 -41q34 -25 53 -79q19 -52 19 -123q0 -132 -66 -195q-64 -61 -231 -61q-60 0 -170 8q-79 9 -141 18v-104z" />
<glyph unicode="6" d="M113 664q0 -164 22 -299q24 -128 76 -213q55 -86 141 -132q87 -43 217 -43q112 0 199 33q85 36 135 94q51 56 76 146q22 78 22 186q0 224 -100 330q-95 106 -287 106q-103 0 -174 -26q-63 -21 -123 -62q3 124 23 220q21 89 61 141q44 56 105 76q62 22 156 22q66 0 124 -6 q125 -12 136 -14v84q0 23 -9 41q-6 19 -39 30q-55 21 -118 29q-59 10 -148 10q-119 0 -209 -37q-91 -37 -155 -125q-62 -86 -99 -231q-32 -134 -32 -360zM317 627q52 38 123 57q68 18 133 18q72 0 113 -20q46 -18 70 -55q26 -37 35 -84q10 -41 10 -109q0 -145 -53 -215 q-54 -72 -177 -72q-69 0 -122 29q-52 32 -80 86q-29 59 -41 148q-11 84 -11 217z" />
<glyph unicode="7" d="M111 1255q0 -47 49 -47h577q-47 -91 -108 -221q-55 -123 -111 -258q-40 -98 -102 -270q-41 -111 -82 -262q-29 -98 -29 -142q0 -55 49 -55h154q61 303 172 610q107 297 268 617v110q0 31 -16 39q-13 10 -39 10h-782v-131z" />
<glyph unicode="8" d="M90 379q0 -203 121 -303q123 -99 340 -99q223 0 340 99q117 97 117 303q0 126 -47 207q-47 89 -162 141q94 51 133 133q39 77 39 184q0 181 -107 279q-102 96 -315 96q-211 0 -318 -98q-104 -98 -104 -277q0 -97 41 -184q44 -86 131 -133q-114 -51 -164 -143 q-45 -86 -45 -205zM295 391q0 46 10 98q12 47 39 78q33 37 78 54q45 18 127 18q79 0 129 -21q52 -18 78 -51q27 -27 37 -80q10 -39 10 -96q0 -131 -66 -188q-65 -56 -188 -56q-118 0 -189 58q-65 59 -65 186zM324 1034q0 116 55 168q53 53 170 53q119 0 172 -53 q53 -50 53 -168q0 -47 -8 -86q-5 -37 -31 -74q-26 -32 -67 -51q-44 -18 -119 -18q-67 0 -119 20q-46 22 -70 52q-21 30 -30 73q-6 44 -6 84z" />
<glyph unicode="9" d="M96 969q0 -212 101 -322q103 -106 288 -106q96 0 172 26q65 24 123 62q0 -136 -22 -232q-18 -91 -60 -145q-38 -52 -106 -76q-68 -22 -158 -22q-76 0 -137 6q-17 2 -38.5 4.5t-50 6t-46.5 5.5v-86q0 -17 8 -41q10 -19 39 -31q41 -15 121 -28q82 -10 149 -10q132 0 223 36 q96 36 158 123q64 88 94 234q31 132 31 364q0 179 -22 297q-21 128 -76 213q-52 85 -142 129q-85 43 -217 43q-117 0 -196 -33q-79 -30 -135 -92q-52 -58 -76 -143q-25 -86 -25 -182zM297 977q0 136 55 203q54 69 176 69q142 0 197 -110t55 -353q-55 -39 -121 -57 q-67 -18 -124 -18q-71 0 -117 18q-44 18 -74 53q-25 35 -37 84q-10 55 -10 111z" />
<glyph unicode=":" horiz-adv-x="512" d="M119 119q0 -70 33 -103q32 -28 104 -28q74 0 104 30q33 29 33 101q0 71 -33 100q-29 29 -104 29q-68 0 -104 -31q-33 -33 -33 -98zM119 913q0 -69 33 -102q33 -29 104 -29q73 0 104 31q33 29 33 100q0 72 -33 101q-28 28 -104 28q-70 0 -104 -30q-33 -33 -33 -99z" />
<glyph unicode=";" horiz-adv-x="512" d="M119 119q0 -41 20 -74q23 -29 72 -41l-80 -203q-6 -15 -6 -28q0 -27 35 -27h92l80 178q41 100 45 115q14 41 14 82q0 67 -33 96q-31 31 -102 31q-68 0 -104 -31q-33 -33 -33 -98zM119 913q0 -69 33 -102q33 -29 104 -29q73 0 104 31q33 29 33 100q0 72 -33 101 q-28 28 -104 28q-70 0 -104 -30q-33 -33 -33 -99z" />
<glyph unicode="&#x3c;" d="M172 668q0 -25 8 -41q6 -8 37 -25l686 -342v154q0 27 -6 39q-5 12 -31 22l-495 225l532 252v133q0 39 -35 39q-22 0 -37 -10l-659 -340v-106z" />
<glyph unicode="=" d="M139 453q0 -47 49 -47h770v124q0 48 -47 48h-772v-125zM139 856q0 -47 49 -47h770v125q0 25 -11 36t-36 11h-772v-125z" />
<glyph unicode="&#x3e;" d="M195 313q0 -39 34 -39q15 0 37 11l660 340v106q0 30 -8 41q-6 13 -37 25l-686 342v-154q0 -24 6 -39q5 -9 30 -22l496 -226l-532 -252v-133z" />
<glyph unicode="?" horiz-adv-x="872" d="M80 1280q0 -19 8 -35q9 -12 35 -12q31 0 92 12q54 10 139 10q115 0 170 -43q54 -42 54 -141q0 -34 -9 -61q-8 -30 -22 -52q-17 -27 -45 -55q-20 -23 -68 -67l-80 -80q-34 -36 -55 -70q-17 -28 -31 -72q-10 -42 -10 -84q0 -102 59 -102h105q2 46 10 94q9 36 29 70 q18 30 55 70q35 36 94 88q52 49 72 73q35 38 57 78q24 43 35 90q12 49 12 111q0 106 -32 166q-30 68 -84 104q-48 37 -123 53q-56 15 -144 15q-97 0 -184 -19q-81 -18 -139 -41v-100zM221 119q0 -70 33 -103q32 -28 104 -28q75 0 105 30q33 29 33 101q0 71 -33 100 q-29 29 -105 29q-68 0 -104 -31q-33 -33 -33 -98z" />
<glyph unicode="@" horiz-adv-x="1710" d="M104 524q0 -240 66 -407q70 -166 174 -254q112 -92 260 -133q148 -37 318 -37q123 0 235 16q120 20 156 33v74q0 51 -45 51q-36 0 -109 -12q-80 -13 -203 -13q-148 0 -290 33q-127 35 -215 111q-84 78 -134 209q-45 128 -45 327q0 221 56 363q55 143 143 225 q91 85 209 115q111 32 246 32q283 0 401 -139q121 -136 121 -424q0 -97 -14 -174q-12 -77 -43 -141q-28 -57 -82 -96q-50 -35 -127 -35l39 684q3 41 -19 53q-13 8 -43 16q-50 14 -98 19q-37 6 -109 6q-139 0 -225 -45q-85 -43 -139 -119q-50 -74 -70 -170q-18 -94 -18 -196 q0 -202 65 -308q66 -100 211 -100q93 0 154 37q62 38 100 84l8 -59q6 -26 19 -39q18 -11 33 -11h69q123 0 211 45q87 46 141 123q56 80 80 191q25 103 25 243q0 221 -60 353q-60 142 -155 215q-92 77 -221 108q-119 29 -254 29q-162 0 -310 -43q-153 -45 -262 -143 q-112 -100 -182 -271q-68 -171 -68 -426zM676 496q0 66 10 141q13 73 35 121q28 57 76 86q43 30 129 30q36 0 59 -4q38 -3 55 -8l-28 -540q-29 -36 -76 -62q-41 -20 -102 -20q-90 0 -125 57q-33 64 -33 199z" />
<glyph unicode="A" horiz-adv-x="1132" d="M66 51q0 -51 43 -51h157q5 33 15.5 98.5t15.5 98.5q7 37 19.5 103.5t17.5 94.5h457q11 -52 32 -172q16 -75 29 -176q6 -47 49 -47h174q-28 206 -78 422q-41 195 -96 381q-56 204 -100 323q-42 123 -94 250q-5 21 -21 33q-10 10 -37 10h-205q-42 -98 -92 -235 q-16 -44 -94 -293q-46 -156 -92 -340q-50 -208 -82 -379q-12 -58 -18 -121zM360 563q55 219 101 367q9 29 45 143t55 170q55 -152 105 -315q42 -128 98 -365h-404z" />
<glyph unicode="B" horiz-adv-x="1140" d="M143 47q0 -47 50 -47h411q98 0 178 18q77 17 144 64q59 45 94 119q33 67 33 184q0 125 -49 213q-49 90 -170 133q97 45 139 121q43 74 43 201q0 111 -35 180q-37 79 -94 119q-59 45 -146 63q-77 19 -186 19q-80 0 -207 -13q-157 -16 -205 -26v-1348zM352 170v475h162 q88 0 143 -8q59 -6 105 -31q43 -24 61 -74q21 -49 21 -126q0 -71 -17 -115q-17 -48 -47 -72q-35 -28 -80 -39q-41 -10 -112 -10h-236zM352 809v442q58 9 90 11q37 4 107 4q74 0 119 -11q53 -10 82 -36q31 -22 47 -70q14 -34 14 -113q0 -71 -14 -114q-11 -39 -45 -70 q-29 -23 -72 -35q-39 -8 -100 -8h-228z" />
<glyph unicode="C" horiz-adv-x="1030" d="M115 709q0 -188 28 -334q29 -132 93 -228q62 -85 157 -129q100 -41 232 -41q105 0 192 19q78 16 141 39v100q0 49 -51 49q-42 0 -96 -10q-68 -10 -149 -10q-82 0 -146 22q-59 23 -102 84q-39 59 -60 168q-20 123 -20 281q0 148 16 260q17 100 56 164q43 65 102 88 q57 24 156 24q86 0 151 -8q85 -7 131 -14v96q0 31 -10 43q-9 18 -33 27q-48 20 -121 31q-64 10 -147 10q-147 0 -240 -41q-99 -40 -162 -127q-59 -82 -90 -228q-28 -143 -28 -335z" />
<glyph unicode="D" horiz-adv-x="1232" d="M143 47q0 -47 50 -47h380q139 0 248 39q106 41 168 123q68 86 98 221q31 124 31 336q0 207 -33 336q-30 138 -98 221q-65 83 -172 121q-104 37 -250 37q-63 0 -100 -4q-53 -3 -111 -9q-108 -12 -110 -12q-59 -6 -101 -14v-1348zM358 172v1075q46 7 95 10q49 5 104 5 q100 0 162 -23q64 -20 106 -84q39 -56 58 -164q16 -93 16 -262q0 -185 -20 -291q-16 -101 -64 -168q-45 -60 -108 -80q-65 -18 -154 -18h-195z" />
<glyph unicode="E" horiz-adv-x="1050" d="M143 47q0 -47 50 -47h776v129q0 23 -15 35q-12 12 -34 12h-562v453h533v131q0 25 -11 36t-36 11h-486v436h586v129q0 25 -11 36t-36 11h-754v-1372z" />
<glyph unicode="F" horiz-adv-x="991" d="M143 47q0 -47 50 -47h165v621h498v131q0 25 -11 36t-36 11h-451v444h564v129q0 47 -48 47h-731v-1372z" />
<glyph unicode="G" horiz-adv-x="1171" d="M115 707q0 -194 30 -332q31 -138 97 -228q65 -86 176 -129q112 -41 268 -41q99 0 203 17q95 18 168 45v663q0 48 -49 48h-367v-129q0 -23 12 -35q13 -13 31 -13h176v-403q-12 -2 -40 -5.5l-36 -4.5q-29 -2 -88 -2q-83 0 -161 20q-67 21 -113 82q-45 64 -68 170 q-22 116 -22 289q0 153 20 270q22 110 62 164q43 61 114 82q61 20 177 20q83 0 159 -8q97 -7 144 -14v92q0 31 -9 43q-6 16 -30 25q-34 16 -117 32q-66 15 -182 15q-151 0 -252 -39q-104 -37 -172 -123q-66 -83 -101 -227q-30 -141 -30 -344z" />
<glyph unicode="H" horiz-adv-x="1243" d="M143 47q0 -47 50 -47h165v637h527v-590q0 -21 14 -35q15 -12 35 -12h166v1372q0 47 -49 47h-166v-602h-527v555q0 24 -14 35q-12 12 -35 12h-166v-1372z" />
<glyph unicode="I" horiz-adv-x="501" d="M143 47q0 -47 50 -47h165v1372q0 47 -49 47h-166v-1372z" />
<glyph unicode="J" horiz-adv-x="776" d="M55 63q0 -16 6 -34q5 -11 25 -25q31 -10 66 -16q41 -6 102 -6q110 0 186 28q77 31 119 88q43 57 62 148q18 89 18 209v917q0 47 -49 47h-166v-985q0 -63 -8 -110q-6 -50 -29 -86q-19 -34 -68 -56q-48 -20 -120 -20q-14 0 -38.5 1t-33.5 1q-11 1 -35 2t-37 2v-105z" />
<glyph unicode="K" horiz-adv-x="1132" d="M143 47q0 -47 50 -47h165v639q119 -112 238 -260q125 -148 238 -324l26 -39q16 -16 47 -16h201q-60 113 -127 209q-86 128 -145 201q-59 79 -156 180q-68 73 -154 145q177 155 308 312q123 145 208 288q15 30 15 45q0 39 -43 39h-156q-42 -69 -115 -170 q-10 -14 -29.5 -40.5t-32 -43t-30 -39t-33.5 -41.5q-54 -67 -131 -147q-15 -15 -41.5 -42t-47.5 -48t-40 -39v563q0 47 -49 47h-166v-1372z" />
<glyph unicode="L" horiz-adv-x="966" d="M143 47q0 -47 50 -47h718v133q0 47 -49 47h-504v1192q0 24 -14 35q-12 12 -35 12h-166v-1372z" />
<glyph unicode="M" horiz-adv-x="1462" d="M125 47q0 -47 49 -47h156q0 78 4 274q0 3 6 297q4 103 8 297q4 89 8 277l265 -737q15 -30 18 -35q13 -13 35 -13h145l281 785q4 -85 8 -266q4 -97 8 -287q4 -95 8 -285q4 -94 4 -260q0 -47 50 -47h159q-3 359 -18 696q-11 309 -37 676q0 23 -12 35q-9 12 -35 12h-203 l-299 -841l-282 794q-14 47 -56 47h-215q-6 -117 -37 -702q-10 -226 -18 -670z" />
<glyph unicode="N" horiz-adv-x="1255" d="M143 47q0 -47 50 -47h155v1075q33 -56 68 -123q2 -4 90 -166q79 -146 102 -192q68 -125 105 -199q64 -121 96 -188q52 -99 78 -160q21 -47 55 -47h170v1372q0 47 -49 47h-156v-1042q-45 96 -82 162q-67 131 -96 184q-50 100 -100 190q-31 63 -101 183q-14 24 -43 77.5 t-45 79.5q-10 18 -32.5 59.5t-32.5 59.5q-13 23 -25 35q-10 12 -35 12h-172v-1372z" />
<glyph unicode="O" horiz-adv-x="1255" d="M115 709q0 -229 37 -371q39 -146 104 -223q68 -80 162 -111q91 -29 209 -29q113 0 211 31q92 28 161 109q67 78 105 223q37 142 37 371q0 231 -37 370q-38 145 -105 224q-69 82 -163 110q-91 29 -209 29q-111 0 -209 -31q-97 -32 -162 -108q-66 -78 -104 -224 q-37 -139 -37 -370zM334 709q0 141 14 264q15 111 47 170q37 66 90 92q53 27 142 27t143 -29q56 -26 90 -92q35 -60 47 -170q15 -105 15 -262t-15 -265q-12 -103 -49 -170q-34 -63 -90 -92q-53 -26 -141 -26q-83 0 -144 28q-53 29 -90 92q-32 62 -47 170q-12 108 -12 263z " />
<glyph unicode="P" horiz-adv-x="1128" d="M143 47q0 -47 50 -47h163v535q15 -3 59 -11.5t66 -11.5q61 -6 113 -6q95 0 184 26q88 28 140 80q59 56 90 144q30 77 30 215q0 252 -116 356q-116 107 -365 107q-87 0 -211 -13q-157 -17 -203 -26v-1348zM356 698v553q58 9 90 11q37 4 115 4q61 0 115 -13q53 -12 84 -43 q34 -28 53 -88q16 -49 16 -151q0 -94 -16 -146q-15 -55 -49 -92q-27 -31 -80 -47q-50 -12 -115 -12q-32 0 -106 8q-19 3 -54.5 8t-52.5 8z" />
<glyph unicode="Q" horiz-adv-x="1255" d="M115 709q0 -229 37 -371q39 -146 104 -223q68 -80 162 -111q91 -29 209 -29q10 0 31.5 1t31.5 1q32 3 60 9q27 -27 75 -95q53 -71 74 -108q5 -6 15 -18.5t14 -16.5q12 -12 39 -12h186q-52 96 -113 174q-68 94 -112 141q54 41 90 90q39 49 67 133q28 75 41 187 q15 108 15 248q0 231 -37 370q-38 145 -105 224q-69 82 -163 110q-91 29 -209 29q-111 0 -209 -31q-97 -32 -162 -108q-66 -78 -104 -224q-37 -139 -37 -370zM334 709q0 141 14 264q15 111 47 170q37 66 90 92q53 27 142 27t143 -29q56 -26 90 -92q35 -60 47 -170 q15 -105 15 -262t-15 -265q-12 -103 -49 -170q-34 -63 -90 -92q-53 -26 -141 -26q-83 0 -144 28q-53 29 -90 92q-32 62 -47 170q-12 108 -12 263z" />
<glyph unicode="R" horiz-adv-x="1161" d="M143 47q0 -47 50 -47h163v569h219q49 -55 93 -129q53 -81 84 -141q36 -62 69 -137q27 -53 49 -117q9 -21 23 -35q13 -10 41 -10h178q-17 59 -57 145q-57 124 -80 166q-48 94 -94 164q-52 83 -99 139q119 44 189 138q69 93 69 249q0 219 -110 326q-107 107 -357 107 q-103 0 -227 -13q-157 -17 -203 -26v-1348zM356 735v516q58 9 90 11q37 4 125 4q61 0 115 -13t82 -41q31 -27 47 -82q16 -44 16 -131q0 -77 -18 -133q-18 -52 -53 -80q-40 -31 -80 -41q-39 -10 -98 -10h-226z" />
<glyph unicode="S" horiz-adv-x="1054" d="M98 1049q0 -90 25 -160q21 -57 72 -111q48 -46 112 -78q103 -46 152 -63q78 -26 137 -51q54 -21 86 -49q35 -24 47 -62q12 -30 12 -94q0 -49 -12 -92q-12 -42 -45 -70q-27 -24 -88 -43q-52 -14 -141 -14t-187 10q-99 14 -157 21v-103q0 -21 10 -41q10 -12 37 -26 q53 -18 143 -33q99 -13 191 -13q224 0 344 97q118 97 118 315q0 105 -26 170q-23 65 -74 113q-45 45 -115 76q-93 42 -147 61q-80 30 -135 51q-45 19 -88 47q-31 24 -47 64q-15 47 -15 90q0 39 15 86q15 37 45 61q42 29 84 39q48 13 133 13q84 0 164 -9q106 -8 155 -16v94 q0 25 -8 41q-7 20 -39 31q-42 16 -133 29q-71 10 -172 10q-231 0 -342 -99t-111 -292z" />
<glyph unicode="T" horiz-adv-x="1075" d="M55 1286q0 -47 49 -47h326v-1192q0 -47 49 -47h166v1239h377v133q0 24 -14 35q-12 12 -35 12h-918v-133z" />
<glyph unicode="U" horiz-adv-x="1216" d="M135 502q0 -140 33 -252q37 -107 92 -162q58 -58 150 -86q95 -25 202 -25q249 0 361 127q108 126 108 398v870q0 24 -14 35q-12 12 -35 12h-166v-938q0 -75 -12 -137q-13 -62 -39 -100q-26 -39 -78 -64q-47 -20 -127 -20q-76 0 -131 22q-51 25 -78 64q-31 49 -41 100 t-10 133v893q0 47 -49 47h-166v-917z" />
<glyph unicode="V" horiz-adv-x="1130" d="M57 1419q19 -137 64 -358q45 -207 88 -363q51 -185 104 -346q48 -143 113 -309q10 -20 23 -33q13 -10 40 -10h197q50 116 111 291q52 153 100 325q42 141 86 328q34 137 59 291l23 133q2 9 2 16q0 35 -49 35h-162q-7 -70 -39 -252q-38 -215 -57 -293q-47 -207 -80 -321 q-42 -149 -109 -338q-45 125 -108 332q-2 6 -80 313q-14 62 -55 281q-4 23 -17.5 107t-19.5 124q-6 47 -49 47h-185z" />
<glyph unicode="W" horiz-adv-x="1624" d="M74 1419q13 -136 43 -342q48 -289 63 -364q31 -154 82 -355q50 -186 92 -313q12 -24 23 -35q13 -10 39 -10h174l223 1016l211 -965q7 -28 18 -39q12 -12 37 -12h181q45 136 92 313q46 175 78 328q36 158 61 320q25 145 41 282q2 12 8 68q4 20 4 57q1 6 1 11q0 40 -44 40 h-160q-22 -305 -75 -588q-57 -321 -121 -577l-213 1001q-3 24 -19 37q-10 13 -34 13h-166l-230 -1049q-56 247 -116 563q-46 262 -72 549q-3 51 -47 51h-174z" />
<glyph unicode="X" horiz-adv-x="1140" d="M74 45q0 -21 14 -35q17 -10 37 -10h156q51 157 110 297q68 165 174 315q105 -144 166 -290q68 -151 103 -267q11 -30 20 -41q14 -14 35 -14h190q-45 155 -139 350q-87 184 -240 379q21 29 95 139q63 97 94 154q47 80 84 156q36 70 63 147q3 8 8 27q5 10 5 22q0 28 -17 37 q-10 8 -35 8h-153q-17 -65 -49 -151q-25 -66 -68 -154q-55 -107 -78 -145q-67 -112 -76 -125q-26 39 -71 117q-14 26 -39 74t-33 63q-54 114 -65 141q-28 69 -50 133q-6 23 -18 35t-33 12h-190q25 -91 67 -178q69 -145 90 -184q28 -53 103 -174q89 -132 102 -150 q-129 -166 -215 -334t-137 -313q-10 -27 -10 -41z" />
<glyph unicode="Y" horiz-adv-x="1075" d="M39 1419q34 -116 74 -225q10 -25 39 -100t47 -117q38 -84 104 -215q25 -47 127 -223v-492q0 -47 49 -47h166v539q76 129 115 200q48 85 96 195q50 106 84 199q34 89 76 219q12 29 -2 49q-10 18 -41 18h-160q-7 -45 -37 -139q-15 -50 -63 -178q-60 -151 -80 -195 q-51 -117 -90 -186q-28 51 -86 174q-69 164 -72 170q-22 63 -57 158q-5 15 -21.5 65.5t-23.5 75.5q-6 30 -19 43q-7 12 -39 12h-186z" />
<glyph unicode="Z" horiz-adv-x="1073" d="M78 47q0 -47 49 -47h868v133q0 47 -49 47h-631q28 51 134 232q102 172 159 264q34 55 101 159t79 123q32 49 191 287v127q0 25 -11 36t-36 11h-838v-133q0 -47 49 -47h600q-70 -101 -176 -264q-30 -47 -89 -141.5t-89 -141.5q-13 -22 -75 -122.5t-93 -153.5 q-68 -116 -143 -248v-121z" />
<glyph unicode="[" horiz-adv-x="663" d="M141 -123q0 -47 49 -47h418v115q0 47 -49 47h-223v1419h272v115q0 47 -49 47h-418v-1696z" />
<glyph unicode="\" horiz-adv-x="751" d="M37 1573l463 -1688q9 -30 22 -43q15 -12 37 -12h156l-463 1688q-6 29 -23 43q-12 12 -39 12h-153z" />
<glyph unicode="]" horiz-adv-x="663" d="M55 -8v-115q0 -47 49 -47h418v1696q0 47 -49 47h-418v-115q0 -47 49 -47h224v-1419h-273z" />
<glyph unicode="^" d="M133 711q7 -21 33 -21h139l242 492l221 -453q13 -23 27 -31q24 -8 51 -8h137l-334 670q-8 22 -22 29q-12 6 -35 6h-125l-328 -647q-9 -15 -6 -37z" />
<glyph unicode="_" horiz-adv-x="1032" d="M0 -90v-172h1032v172h-1032z" />
<glyph unicode="`" horiz-adv-x="888" d="M188 1477l185 -267q23 -36 63 -36h113q-53 135 -105 258q-9 27 -24 36q-9 9 -41 9h-191z" />
<glyph unicode="a" horiz-adv-x="1019" d="M84 313q0 -153 78 -243q82 -88 237 -88q111 0 185 41q79 45 127 90l8 -62q2 -6 6 -18.5t6 -18.5q8 -14 43 -14h125v702q0 86 -20 150q-19 71 -66 115q-46 49 -125 73q-71 25 -194 25q-100 0 -185 -14q-83 -11 -162 -37v-88q0 -19 13 -35q12 -12 37 -12q16 0 94 10 q49 8 162 8q135 0 188 -39q55 -37 55 -145v-70h-211q-94 0 -159 -16q-76 -16 -129 -54q-55 -37 -84 -100q-29 -59 -29 -160zM270 319q0 35 11 72q14 40 32 58q24 24 64 36q38 13 102 13h217v-254q-45 -42 -102 -74q-60 -31 -141 -31q-92 0 -138 43q-45 45 -45 137z" />
<glyph unicode="b" horiz-adv-x="1067" d="M125 106q0 -25 10 -45q9 -11 35 -24q46 -18 135 -39q107 -21 205 -21q121 0 209 31q85 29 141 94q59 72 82 168q25 97 25 246q0 141 -25 250q-25 107 -72 172q-47 69 -116 98q-61 31 -156 31q-88 0 -156 -27q-54 -20 -110 -59v430q0 59 -62 59h-145v-1364zM332 160v674 q43 32 90 49q45 18 115 18q59 0 98 -20q43 -18 70 -64q27 -40 40 -117q13 -64 13 -184q0 -123 -17 -192q-15 -74 -45 -117q-27 -40 -78 -55q-58 -15 -110 -15q-50 0 -94 6q-12 2 -25.5 4.5t-30 6.5t-26.5 6z" />
<glyph unicode="c" horiz-adv-x="868" d="M100 518q0 -116 23 -231q24 -101 72 -170q49 -67 129 -105q74 -35 194 -35q73 0 156 17q83 20 121 35v86q0 49 -50 49q-30 0 -79 -8q-56 -6 -113 -6q-54 0 -104 16q-51 21 -76 57q-29 42 -47 115q-17 83 -17 190q0 89 15 177q14 71 43 112q31 44 79 62q44 16 117 16 q45 0 103 -6q93 -9 125 -15v89q0 24 -11 38q-10 19 -30 27q-29 15 -99 27q-56 10 -137 10q-209 0 -313 -131q-101 -128 -101 -416z" />
<glyph unicode="d" horiz-adv-x="1067" d="M100 512q0 -254 84 -395q86 -135 267 -135q108 0 182 41q73 43 119 92l8 -64q6 -30 20 -41q20 -10 37 -10h125v1423q0 24 -14 35q-12 12 -35 12h-158v-456q-27 18 -86 33q-49 16 -141 16q-202 0 -307 -129q-101 -128 -101 -422zM309 522q0 98 13 178q12 75 38 119 q30 49 76 66q47 20 119 20q62 0 98 -10q43 -8 82 -27v-620q-30 -30 -88 -66q-55 -30 -135 -30q-115 0 -160 88q-43 87 -43 282z" />
<glyph unicode="e" horiz-adv-x="1015" d="M100 518q0 -134 27 -252q25 -96 84 -168q57 -62 141 -92q92 -29 203 -29q100 0 197 17q87 18 133 35v86q0 45 -47 45q-30 0 -90 -8q-97 -9 -146 -9q-81 0 -147 17q-59 19 -93 53q-31 34 -47 92q-12 58 -18 139h598q9 24 16 84q7 65 7 115q0 94 -17 166q-14 76 -59 133 q-43 58 -119 92q-65 33 -195 33q-104 0 -186 -31q-81 -31 -135 -96q-53 -64 -80 -170q-27 -118 -27 -252zM297 590q3 80 14 135q11 56 37 100q26 42 72 64q43 22 115 22q117 0 157 -67q39 -61 39 -197v-26q0 -17 -2 -31h-432z" />
<glyph unicode="f" horiz-adv-x="698" d="M63 926q0 -47 50 -47h71v-832q0 -47 47 -47h160v879h256v116q0 24 -14 35q-12 12 -35 12h-207v148q0 25 4 57q5 22 19 43q17 21 39 29q22 10 71 10q48 0 64 -2q12 0 78 -8v90q0 22 -9 37q-5 15 -28 24q-30 13 -78 19q-33 4 -82 4q-158 0 -221 -78q-64 -80 -64 -215v-158 h-121v-116z" />
<glyph unicode="g" horiz-adv-x="1062" d="M100 530q0 -98 17 -202q18 -94 57 -158q40 -63 111 -102q70 -37 174 -37q79 0 143 22q61 24 119 64v-127q0 -104 -59 -146q-55 -41 -207 -41q-52 0 -138 7q-40 3 -143 16v-86q0 -15 8 -39q7 -12 33 -25q20 -7 64 -18q9 -1 35.5 -5.5t43.5 -6.5q14 -2 41 -4t41 -4 q44 -3 74 -3q208 0 311 95q101 94 101 274v367q0 166 -2 250q0 59 -9 253h78v89q0 38 -20 49q-18 12 -58 18q-70 14 -149 19q-76 8 -170 8q-123 0 -221 -25q-92 -24 -154 -86q-64 -64 -92 -162q-29 -99 -29 -254zM307 535q0 105 17 182q18 72 51 110q36 42 88 54 q52 14 129 14q40 0 63 -2q46 0 66 -4v-631q-55 -34 -90 -49q-49 -19 -111 -19q-50 0 -96 19q-43 19 -68 57q-26 47 -37 107q-12 67 -12 162z" />
<glyph unicode="h" horiz-adv-x="1073" d="M125 47q0 -47 49 -47h158v788q36 36 94 70q54 33 143 33q90 0 131 -47q45 -45 45 -152v-645q0 -20 15 -35q15 -12 35 -12h157v709q0 169 -71 260q-68 96 -236 96q-95 0 -174 -33q-77 -29 -139 -94v485q0 23 -15 35q-12 12 -34 12h-158v-1423z" />
<glyph unicode="i" horiz-adv-x="464" d="M109 1319q0 -61 30 -88q31 -25 97 -25q62 0 96 27q30 27 30 86q0 62 -30 86q-30 27 -96 27q-69 0 -99 -27q-28 -22 -28 -86zM129 47q0 -47 49 -47h158v995q0 47 -49 47h-158v-995z" />
<glyph unicode="j" horiz-adv-x="464" d="M-59 -193v-92q0 -22 12 -37q14 -14 20 -18q12 -6 52 -14q23 -2 61 -2q128 0 190 65q60 66 60 176v1110q0 47 -49 47h-158v-1128q0 -56 -23 -82q-24 -27 -75 -27h-45q-7 0 -22 1t-23 1zM109 1319q0 -61 30 -88q31 -25 97 -25q62 0 96 27q30 27 30 86q0 62 -30 86 q-30 27 -96 27q-69 0 -99 -27q-28 -22 -28 -86z" />
<glyph unicode="k" horiz-adv-x="1005" d="M125 47q0 -47 49 -47h158v492q60 -52 123 -115q66 -66 102 -109q46 -49 86 -108q43 -59 76 -113q15 -26 24 -35q15 -12 41 -12h191q-63 109 -101 162q-44 68 -104 141q-67 81 -119 131q-53 55 -137 123q54 41 125 109q105 105 113 114q33 35 88 103q49 65 53 71 q20 29 20 52q0 36 -34 36h-154q-51 -71 -162 -206q-84 -102 -231 -224v811q0 23 -15 35q-12 12 -34 12h-158v-1423z" />
<glyph unicode="l" horiz-adv-x="534" d="M125 299q0 -69 10 -137q13 -62 33 -96q25 -39 65 -60q43 -18 105 -18q42 0 76 6q44 7 67 14v94q0 34 -16 39q-18 11 -49 11q-48 3 -66 18q-18 18 -18 72v1181q0 23 -15 35q-12 12 -34 12h-158v-1171z" />
<glyph unicode="m" horiz-adv-x="1648" d="M125 47q0 -47 49 -47h158v791q38 38 92 67q56 33 133 33q82 0 123 -47q43 -46 43 -152v-645q0 -21 14 -35q15 -12 35 -12h158v678q0 54 -6 106q30 30 92 72q55 35 139 35q82 0 123 -47q43 -46 43 -152v-645q0 -47 47 -47h160v709q0 186 -80 272q-78 84 -221 84 q-127 0 -205 -47q-82 -48 -131 -103q-39 88 -109 117q-67 33 -155 33q-106 0 -181 -37q-75 -38 -131 -100l-8 63q-3 33 -20 41q-13 10 -37 10h-125v-995z" />
<glyph unicode="n" horiz-adv-x="1073" d="M125 47q0 -47 49 -47h158v788q36 36 94 70q54 33 143 33q90 0 131 -47q45 -45 45 -152v-645q0 -20 15 -35q15 -12 35 -12h157v709q0 164 -71 260q-68 96 -240 96q-198 0 -326 -137l-8 63q-3 33 -20 41q-13 10 -37 10h-125v-995z" />
<glyph unicode="o" horiz-adv-x="1077" d="M100 522q0 -284 105 -416q107 -131 334 -131q228 0 335 131q103 129 103 416q0 285 -105 414q-104 131 -333 131q-232 0 -336 -131q-103 -127 -103 -414zM309 522q0 93 15 185q16 77 41 118q29 45 71 62q46 18 103 18q61 0 104 -18q45 -17 72 -64q29 -42 41 -116 q12 -59 12 -185q0 -117 -14 -188q-12 -74 -41 -119q-27 -44 -72 -61q-41 -17 -102 -17q-56 0 -105 19q-42 17 -72 61q-24 42 -40 119q-13 83 -13 186z" />
<glyph unicode="p" horiz-adv-x="1073" d="M70 920q0 -46 41 -46h36q-4 -83 -8 -245q0 -41 -1 -121t-1 -119v-690q0 -47 49 -47h158v399q57 -27 98 -43q65 -20 146 -20q198 0 291 131q94 131 94 407q0 157 -29 256q-25 97 -90 162t-156 88q-85 25 -225 25q-74 0 -115 -4q-20 -1 -112 -11q-94 -11 -101 -12 q-42 -5 -75 -12v-98zM344 195v694q30 6 68 6h61q89 0 145 -21q60 -19 89 -63q33 -42 45 -115q12 -70 12 -170q0 -115 -14 -184q-12 -73 -41 -115q-26 -43 -74 -61q-39 -16 -105 -16q-58 0 -102 12q-13 4 -84 33z" />
<glyph unicode="q" horiz-adv-x="1073" d="M100 506q0 -266 86 -393q87 -125 273 -125q88 0 155 26q68 29 115 62v-377q0 -21 14 -35q15 -12 35 -12h158v737q0 158 -2 240q0 81 -8 245h78v89q0 37 -21 49q-18 12 -57 18q-70 14 -152 19q-79 8 -172 8q-123 0 -221 -25q-95 -25 -158 -88q-62 -62 -92 -170 q-31 -108 -31 -268zM309 510q0 114 17 197q18 78 53 118q39 45 90 56q52 14 129 14q41 0 66 -2q45 0 65 -4v-668q-44 -29 -94 -51q-50 -20 -117 -20q-52 0 -96 18q-40 18 -64 61t-36 111q-13 76 -13 170z" />
<glyph unicode="r" horiz-adv-x="718" d="M125 47q0 -47 49 -47h158v748q64 67 129 90q68 26 151 26h27q21 0 29 -2v137q0 25 -15 37q-10 13 -55 13q-91 0 -162 -45q-68 -40 -121 -103l-8 90q-6 29 -18 41q-10 10 -39 10h-125v-995z" />
<glyph unicode="s" horiz-adv-x="905" d="M80 758q0 -78 24 -131q23 -48 66 -82q50 -35 104 -53q88 -26 132 -37q51 -11 108 -31q35 -10 66 -33q26 -19 34 -41q9 -18 9 -57q0 -75 -48 -111q-47 -35 -182 -35q-36 0 -155 9q-42 5 -146 14v-88q0 -15 8 -39q7 -12 33 -25q51 -15 57 -16q44 -7 80 -12q14 -2 44 -5 t44 -5q46 -3 80 -3q78 0 158 17q72 18 121 55q53 41 80 103q26 56 26 151q0 83 -24 135q-24 55 -66 84q-42 34 -102 51q-39 14 -129 37q-23 6 -60 16.5t-43 12.5q-44 15 -69 29q-30 22 -39 41q-12 24 -12 59q0 68 47 98q51 31 161 31q57 0 125 -6q152 -13 160 -14v88 q0 29 -10 39q-11 14 -31 22q-26 11 -57 16q-21 5 -72 13q-27 4 -80 8q-14 2 -76 2q-173 0 -270 -72q-96 -72 -96 -235z" />
<glyph unicode="t" horiz-adv-x="714" d="M63 926q0 -47 50 -47h71v-625q0 -139 68 -207q68 -65 213 -65q45 0 88 6q39 5 88 18v96q0 48 -55 48q-21 0 -45 -3h-58q-54 0 -73 31q-19 32 -19 86v615h250v116q0 24 -14 35q-12 12 -35 12h-201v224q0 47 -49 47h-143l-11 -271h-125v-116z" />
<glyph unicode="u" horiz-adv-x="1073" d="M121 334q0 -81 18 -148q17 -63 54 -112q36 -44 96 -72q64 -25 143 -25q197 0 326 138l8 -64q6 -30 20 -41q20 -10 37 -10h125v995q0 47 -49 47h-158v-788q-33 -32 -94 -70q-54 -32 -143 -32q-84 0 -131 47q-45 51 -45 151v645q0 23 -15 35q-12 12 -34 12h-158v-708z" />
<glyph unicode="v" horiz-adv-x="974" d="M53 1042q28 -233 113 -503q85 -260 192 -494q16 -28 23 -35q10 -10 39 -10h176q103 210 184 444q74 209 117 441q10 61 10 63q6 30 6 49q0 45 -43 45h-155q-13 -108 -35 -215q-15 -79 -53 -229q-36 -139 -64 -223q-37 -117 -74 -197q-9 21 -71 189q-35 106 -64 211 q-5 21 -49 213q-27 140 -35 204q-6 47 -49 47h-168z" />
<glyph unicode="w" horiz-adv-x="1433" d="M68 1042q10 -99 34 -247q25 -132 54 -256q21 -92 69 -252q62 -188 82 -242q10 -23 19 -35q10 -10 39 -10h155l197 717l184 -672q6 -22 19 -35q10 -10 32 -10h160q90 230 143 446q57 227 88 433q6 29 9 61q6 30 6 53q3 25 -6 37q-5 12 -37 12h-150q-8 -79 -24 -192 q-9 -81 -35 -217q-7 -43 -45 -219q-22 -98 -51 -197l-185 684q-9 36 -24 45q-10 10 -47 10h-127l-201 -739q-46 169 -51 191q-18 77 -43 204q-22 128 -33 201q-1 12 -20 182q-3 47 -50 47h-161z" />
<glyph unicode="x" horiz-adv-x="980" d="M53 1042q23 -67 58 -133q7 -13 23 -42.5t28.5 -52t25.5 -42.5q29 -45 91 -127q44 -55 86 -106q-98 -103 -172 -222q-77 -123 -123 -231q-15 -38 -15 -49q0 -21 17 -31q18 -6 34 -6h144q32 84 94 215q61 123 143 223q76 -95 127 -192q52 -95 93 -201q2 -5 7 -15.5t7 -15.5 q11 -14 37 -14h182q-38 122 -117 262q-81 148 -205 277q52 61 78 94q61 77 80 106q39 53 70 111q27 44 49 100q10 22 14 39q2 4 2 17q0 25 -16 30q-10 6 -35 6h-139q-37 -107 -98 -217q-68 -119 -127 -194q-28 38 -66 92q-3 4 -22.5 35t-28.5 47q-9 17 -25 48.5t-20 39.5 q-5 12 -20.5 47t-24.5 57q-5 17 -21 33q-12 12 -35 12h-180z" />
<glyph unicode="y" horiz-adv-x="983" d="M55 1042q20 -139 51 -258q59 -203 80 -264q60 -160 103 -260q58 -128 125 -244q-10 -20 -29 -52t-25 -42q-22 -37 -53 -65q-27 -24 -67 -39q-41 -13 -88 -13h-35q-5 0 -20 1t-23 1v-94q0 -37 35 -55q15 -6 45 -12q20 -2 55 -2q63 0 125 24q57 22 121 86q55 57 120 172 q70 126 130 277q50 120 106 309q51 164 88 381q2 10 5 30t5 29q4 23 4 52q0 17 -8 28q-5 10 -35 10h-153q-27 -227 -80 -444q-51 -223 -127 -401q-73 178 -94 233q-40 106 -62 184q-25 91 -43 174q-16 77 -39 207q-3 18 -12 33q-5 14 -39 14h-166z" />
<glyph unicode="z" horiz-adv-x="935" d="M82 47q0 -47 49 -47h725v117q0 24 -14 35q-12 12 -35 12h-496q60 89 111 160q29 42 131 180q22 29 70.5 93t74.5 99q127 165 150 193v94q0 59 -57 59h-697v-116q0 -47 47 -47h477q-36 -44 -141 -179q-26 -32 -143 -190q-27 -36 -74.5 -104.5t-60.5 -86.5 q-54 -77 -117 -172v-100z" />
<glyph unicode="{" horiz-adv-x="692" d="M86 649q0 -28 31 -37q30 -6 53 -32q20 -20 20 -80v-398q0 -48 11 -112q12 -50 39 -90q31 -38 77 -58q58 -20 129 -20q6 0 20.5 1t22.5 1q8 1 26 2t26 2q27 6 51 12q33 11 45 19v78q0 23 -8 34q-5 13 -37 13q-15 0 -31 -2h-47q-84 0 -108 43q-23 48 -23 133v336 q0 69 -23 122q-22 62 -88 91q66 29 88 88q23 56 23 123v325q0 87 23 135q24 43 108 43h53q50 0 70 -4v82q0 22 -6 37q-5 16 -29 25q-38 13 -78 16q-29 4 -75 4q-82 0 -132 -20q-47 -17 -79 -60q-25 -34 -37 -88q-11 -61 -11 -113v-395q0 -72 -32 -94q-27 -22 -72 -25v-137z " />
<glyph unicode="|" horiz-adv-x="589" d="M197 -123q0 -21 14 -35q15 -12 35 -12h145v1696q0 47 -49 47h-145v-1696z" />
<glyph unicode="}" horiz-adv-x="692" d="M55 -14v-82q0 -19 6 -37q4 -11 29 -25q29 -9 78 -16q58 -4 76 -4q76 0 131 20q52 21 80 60q28 38 37 88q10 44 10 112v398q0 68 33 94q35 24 71 24v138q0 19 -8 24q-7 10 -23 13q-30 9 -53 32q-20 23 -20 80v395q0 72 -10 113q-9 53 -39 90q-27 41 -78 58q-47 20 -129 20 q-27 0 -43 -2q-33 0 -51 -4q-26 -3 -52 -12q-21 -5 -45 -19v-78q0 -14 8 -34q10 -13 37 -13l11 1q11 1 20 1h47q88 0 109 -43q22 -40 22 -133v-334q0 -59 23 -123q24 -56 88 -90q-64 -30 -88 -88q-23 -61 -23 -123v-327q0 -95 -22 -135q-21 -43 -109 -43h-53q-24 0 -70 4z " />
<glyph unicode="~" d="M119 582q0 -23 8 -43q11 -15 39 -15h119q0 62 14 113q15 43 70 43q42 0 75 -23q16 -9 82 -55q37 -25 107 -59q58 -23 117 -23q121 0 178 76q53 73 53 186q0 32 -8 43q-6 15 -39 15h-119q0 -72 -14 -113q-12 -43 -70 -43q-35 0 -76 23q-59 41 -82 55q-60 41 -106 59 q-47 23 -117 23q-123 0 -178 -76q-53 -70 -53 -186z" />
<glyph unicode="&#xa1;" horiz-adv-x="538" d="M131 950q0 -67 33 -100q33 -29 104 -29q74 0 105 31q33 29 33 98q0 74 -33 103q-28 28 -105 28q-70 0 -104 -30q-33 -33 -33 -101zM164 -33v-225q0 -21 8 -61q9 -31 41 -31h162v315q0 95 -2 146q0 106 -4 159q-3 82 -9 162q-11 152 -12 160q-6 49 -47 49h-106 q-17 -190 -25 -340q-6 -175 -6 -334z" />
<glyph unicode="&#xa2;" d="M201 707q0 -115 18 -207q19 -94 55 -160q36 -61 105 -107q67 -40 156 -55l-13 -162q0 -41 39 -41h80l16 195q89 6 158 18q78 16 117 31v84q0 51 -55 51q-31 0 -86 -8q-78 -8 -119 -8l63 745q30 0 96 -8q16 -2 48.5 -5t48.5 -5v86q0 43 -43 61q-47 23 -137 31l14 143 q0 33 -39 33h-78l-16 -168q-222 0 -326 -131q-102 -129 -102 -413zM389 717q0 101 12 168q11 62 41 110q32 46 70 62q42 20 102 26l-63 -733q-45 13 -72 35q-28 22 -49 66q-20 48 -31 108q-10 75 -10 158z" />
<glyph unicode="&#xa3;" d="M152 676q0 -47 49 -47h123q6 -38 6 -70q0 -120 -45 -211q-45 -95 -109 -170v-131q0 -47 49 -47h787v102q0 40 -8 56q-6 20 -41 20h-578q141 178 141 389q0 23 -2 31q0 21 -2 31h318v110q0 45 -49 45h-293q-3 13 -11.5 51.5t-11.5 57.5q-8 70 -8 98q0 131 55 189 q51 57 189 57q71 0 139 -6q73 -6 123 -17v99q0 33 -27 51q-23 20 -69 33q-43 12 -99 18q-37 4 -108 4q-213 0 -310 -106q-96 -102 -96 -303q0 -27 8 -109q6 -39 25 -117h-145v-108z" />
<glyph unicode="&#xa4;" d="M74 1059l141 -141q-61 -88 -61 -224q0 -133 61 -221l-119 -123q-22 -22 2 -45l92 -90l146 145q91 -51 213 -51q124 0 213 53l127 -122q23 -24 49 2l86 90l-141 141q61 88 61 221q0 136 -61 224l114 118q28 28 -4 54l-86 84l-145 -146q-85 53 -213 53q-126 0 -213 -53 l-127 123q-25 25 -49 -4zM324 694q0 104 55 168q53 64 170 64q118 0 172 -66q53 -62 53 -166q0 -99 -55 -166q-54 -63 -170 -63t-172 65q-53 64 -53 164z" />
<glyph unicode="&#xa5;" d="M51 1386q55 -194 135 -368q76 -166 183 -350h-252v-90q0 -46 45 -46h272v-188h-317v-90q0 -43 45 -43h272v-166q0 -45 47 -45h150v211h317v90q0 43 -45 43h-272v188h317v93q0 43 -47 43h-207q138 230 197 374q68 169 86 222q13 34 16 47q6 16 6 39q0 36 -45 36h-149 q-13 -61 -39 -137q-22 -73 -61 -168q-35 -89 -78 -180q-54 -113 -88 -176q-71 130 -133 281q-58 145 -121 327q-8 26 -19 41q-6 12 -35 12h-180z" />
<glyph unicode="&#xa6;" horiz-adv-x="589" d="M197 -123q0 -21 14 -35q15 -12 35 -12h145v635q0 47 -49 47h-145v-635zM197 938q0 -21 14 -35q15 -12 35 -12h145v635q0 47 -49 47h-145v-635z" />
<glyph unicode="&#xa7;" horiz-adv-x="1071" d="M96 631q0 -70 23 -131q26 -61 67 -99q37 -33 123 -73q105 -41 178 -62q65 -18 111 -33q44 -11 76 -32q34 -20 43 -39q14 -20 14 -60q0 -82 -65 -108q-73 -27 -187 -27q-46 0 -168 8q-127 12 -170 19v-90q0 -28 33 -54q32 -19 84 -32q61 -14 113 -19q41 -4 121 -4 q73 0 172 15q84 16 137 47q62 38 94 92q33 54 33 151q0 95 -39 148q-33 49 -113 90q108 55 156 121q49 67 49 178q0 87 -27 143q-24 58 -77 99q-41 36 -125 67q-58 24 -164 55q-74 24 -101 31q-48 17 -73 29q-27 16 -45 37q-15 24 -15 57q0 71 58 96q61 25 163 25 q63 0 130 -6q90 -8 167 -17v88q0 31 -10 41q-11 15 -33 23q-21 10 -53 16q-17 5 -74 13q-56 8 -81 10q-15 2 -82 2q-87 0 -150 -16q-74 -16 -121 -50q-49 -34 -78 -88q-28 -58 -28 -137q0 -84 35 -137q37 -49 104 -86q-109 -53 -158 -123q-47 -64 -47 -178zM291 645 q0 77 35 127q37 52 118 86q90 -21 170 -49q65 -20 105 -49q37 -22 53 -58q14 -23 14 -79q0 -77 -36 -127q-34 -45 -117 -84q-72 19 -170 49q-69 26 -105 47q-38 28 -53 57q-14 40 -14 80z" />
<glyph unicode="&#xa8;" horiz-adv-x="888" d="M135 1319q0 -57 29 -86q31 -25 90 -25q60 0 90 27q27 24 27 84q0 63 -29 86q-25 25 -88 25q-62 0 -92 -27q-27 -24 -27 -84zM518 1319q0 -57 29 -86q31 -25 90 -25q60 0 90 27q27 24 27 84q0 63 -29 86q-25 25 -88 25q-62 0 -92 -27q-27 -24 -27 -84z" />
<glyph unicode="&#xa9;" horiz-adv-x="1609" d="M102 709q0 -168 48 -310q50 -138 139 -229q94 -94 221 -143q133 -50 295 -50q167 0 297 50q125 47 221 143q89 92 137 231q47 131 47 308q0 181 -47 309q-46 136 -139 229q-93 96 -221 144q-128 49 -295 49q-166 0 -297 -49q-130 -50 -221 -144q-84 -84 -137 -231 q-48 -139 -48 -307zM252 709q0 121 31 233q29 108 94 188q68 80 172 123q105 45 256 45q156 0 258 -45q102 -41 170 -125q67 -79 96 -186q29 -104 29 -233q0 -121 -31 -236q-31 -112 -94 -186q-61 -75 -172 -123q-109 -45 -256 -45q-146 0 -258 45q-102 45 -170 125 q-67 83 -96 186q-29 107 -29 234zM492 709q0 -209 79 -303q83 -95 252 -95q65 0 125 13q57 12 88 24v76q0 39 -41 39q-37 0 -57 -4q-36 -4 -78 -4q-30 0 -80 8q-30 7 -61 35q-23 26 -41 75q-14 49 -14 138q0 69 14 127q15 50 39 77q27 30 63 39q37 11 88 11t76 -2 q14 0 88 -9v80q0 26 -16 37q-18 17 -45 23q-27 9 -66 12q-13 2 -78 2q-163 0 -249 -92t-86 -307z" />
<glyph unicode="&#xaa;" horiz-adv-x="745" d="M80 967q0 -100 55 -152q57 -51 154 -51q64 0 117 29q58 33 90 65l6 -47q6 -21 16 -31q12 -6 27 -6h90v451q0 100 -64 161q-60 60 -211 60q-73 0 -124 -10q-65 -10 -107 -23v-70q0 -6 8 -22q10 -10 31 -10q30 0 70 6q43 6 94 6q69 0 108 -16q43 -15 43 -84v-39h-125 q-128 0 -204 -49q-74 -50 -74 -168zM104 559q0 -20 15 -35q13 -10 35 -10h481v80q0 24 -14 35q-12 12 -35 12h-482v-82zM219 977q0 48 33 78q32 28 106 28h125v-129q-23 -30 -63 -51q-44 -24 -94 -24q-107 0 -107 98z" />
<glyph unicode="&#xab;" horiz-adv-x="892" d="M82 530l135 -288l9.5 -19t12.5 -24.5t11 -22.5q18 -35 53 -35h141l-168 389q32 63 66 146q20 49 66 143q2 4 12 29q2 7 5.5 14.5t4.5 9.5q7 21 -2 33q-6 15 -29 15h-127zM453 530l135 -288l9.5 -19t12.5 -24.5t11 -22.5q18 -35 53 -35h141l-168 389q32 63 66 146 q25 61 65 143q7 14 13 29q2 7 5.5 14.5t4.5 9.5q7 21 -2 33q-6 15 -29 15h-127z" />
<glyph unicode="&#xac;" d="M139 780q0 -47 49 -47h574v-301q0 -47 47 -47h131v473q0 25 -11 36t-36 11h-754v-125z" />
<glyph unicode="&#xad;" horiz-adv-x="788" d="M90 514q0 -47 49 -47h559v137q0 47 -49 47h-559v-137z" />
<glyph unicode="&#xae;" horiz-adv-x="1005" d="M76 1063q0 -203 114 -320q114 -114 312 -114q200 0 313 116q113 113 113 318q0 204 -115 319q-112 115 -311 115q-197 0 -314 -117q-112 -115 -112 -317zM178 1063q0 165 84 252q85 88 240 88q157 0 239 -88q84 -84 84 -252q0 -165 -84 -252q-85 -88 -239 -88 q-152 0 -240 88q-84 90 -84 252zM342 877q0 -29 29 -29h67v162h66q20 -27 41 -70q18 -33 33 -70q1 -2 4.5 -8t5.5 -8q6 -6 26 -6h82q-9 29 -43 88q-20 42 -59 94q37 18 55 45q19 27 19 74q0 141 -168 141q-45 0 -78 -4q-29 -2 -80 -10v-399zM438 1081v131q8 2 29 2h25 q39 0 57 -12t18 -53q0 -40 -18 -55q-19 -13 -51 -13h-60z" />
<glyph unicode="&#xaf;" horiz-adv-x="888" d="M184 1282q0 -47 49 -47h472v108q0 48 -50 48h-471v-109z" />
<glyph unicode="&#xb0;" horiz-adv-x="698" d="M80 1159q0 -127 74 -198q76 -70 196 -70q123 0 197 74q71 71 71 194q0 122 -73 195t-195 73q-125 0 -198 -73q-72 -72 -72 -195zM209 1159q0 66 35 107t106 41q79 0 107 -41q32 -38 32 -107q0 -66 -32 -106q-30 -41 -107 -41q-71 0 -108 37q-33 36 -33 110z" />
<glyph unicode="&#xb1;" d="M139 47q0 -47 49 -47h770v121q0 25 -11 36t-36 11h-772v-121zM139 700q0 -47 49 -47h269v-284q0 -50 47 -50h137v334h317v121q0 47 -49 47h-268v285q0 49 -47 49h-137v-334h-318v-121z" />
<glyph unicode="&#xb2;" horiz-adv-x="774" d="M106 618q0 -15 15 -30q16 -13 33 -13h512v89q0 41 -48 41h-358q5 41 31 81q25 35 67 66q77 53 84 57q15 9 86 56q70 48 99 96q32 49 32 123q0 67 -28 108q-26 42 -70 66q-50 28 -96 35q-35 8 -105 8q-68 0 -135 -12q-70 -12 -104 -25v-64q0 -19 10 -32q13 -13 37 -13 q9 0 74 9q41 8 104 8q93 0 123 -27q33 -23 33 -71q0 -32 -15 -56q-9 -17 -38 -43q-35 -26 -56 -39q-47 -28 -67 -41q-42 -26 -86 -61q-39 -29 -70 -74q-29 -40 -47 -88q-17 -47 -17 -108v-46z" />
<glyph unicode="&#xb3;" horiz-adv-x="774" d="M92 637q0 -15 8 -31q6 -8 37 -22q7 -2 24.5 -6t20.5 -5q36 -4 54 -8q10 -1 28 -2t27 -2h47q153 0 233 62t80 182q0 73 -30 119q-31 52 -95 80q57 31 80 73q27 47 27 109q0 102 -70 157q-67 58 -221 58q-81 0 -135 -10q-59 -9 -103 -25v-63q0 -18 11 -33q10 -10 37 -10 q22 0 71 6t101 6q79 0 118 -25q35 -22 35 -78q0 -18 -6 -39q-8 -24 -18 -36q-13 -17 -41 -29q-20 -10 -70 -10h-115v-84q0 -43 47 -43h58q83 0 121 -27q39 -23 39 -90q0 -54 -37 -88q-41 -33 -152 -33q-49 0 -104 6q-19 2 -53.5 6.5t-53.5 6.5v-72z" />
<glyph unicode="&#xb4;" horiz-adv-x="888" d="M346 1186q9 -12 29 -12h104l168 217q3 5 11 15t10 15q8 13 8 29q0 27 -35 27h-168q-37 -63 -65 -123q-27 -55 -60 -133q-9 -18 -2 -35z" />
<glyph unicode="&#xb5;" horiz-adv-x="1077" d="M125 -301q0 -47 49 -47h158v389q36 -34 78 -45q39 -8 69 -8q106 0 174 41q72 47 109 86l8 -64q7 -30 18 -41q13 -10 39 -10h125v995q0 47 -49 47h-158v-788q-33 -32 -94 -70q-54 -32 -143 -32q-84 0 -131 47q-45 51 -45 151v645q0 23 -15 35q-12 12 -34 12h-158v-1343z " />
<glyph unicode="&#xb6;" horiz-adv-x="1181" d="M96 975q0 -99 23 -180q25 -78 65 -123t105 -74q66 -26 141 -37v-684q0 -22 16 -35q18 -12 37 -12h121v1432q12 4 41 4h35q55 0 80 -2q49 0 67 -2v-1385q0 -21 17 -35q18 -12 37 -12h120v1427h84v60q0 44 -26 61q-24 21 -68 27q-4 1 -65 10q-28 5 -82 8q-51 7 -90 7 q-31 2 -88 2q-146 0 -250 -23q-109 -22 -178 -74q-69 -51 -107 -141q-35 -80 -35 -219z" />
<glyph unicode="&#xb7;" horiz-adv-x="512" d="M119 698q0 -69 33 -102q33 -29 104 -29q73 0 104 31q33 29 33 100q0 72 -33 101q-28 28 -104 28q-70 0 -104 -30q-33 -33 -33 -99z" />
<glyph unicode="&#xb8;" horiz-adv-x="888" d="M266 -307v-53q0 -27 27 -37q15 -5 39 -9q7 0 22 -1t23 -1q61 0 108 13q41 11 66 30q25 22 35 48q8 18 8 57q0 65 -33 94q-28 32 -102 47l-29 6l49 123h-108l-33 -82q-14 -42 -21 -55q-4 -16 -4 -25q0 -15 11 -26q7 -3 30 -10l19 -5q41 -8 61 -22q17 -11 17 -37 q0 -32 -25 -45q-27 -10 -94 -10h-66z" />
<glyph unicode="&#xb9;" horiz-adv-x="774" d="M127 1198q0 -16 10 -29q11 -8 25 -8q17 0 41 8l145 54v-605q0 -18 12 -30q13 -13 33 -13h121v771q0 25 -12 43q-10 18 -41 18q-23 0 -35 -4q-21 -4 -43 -14q-8 -3 -66 -27q-11 -4 -104 -43l-86 -35v-86z" />
<glyph unicode="&#xba;" horiz-adv-x="745" d="M84 1106q0 -184 74 -264q75 -78 215 -78q142 0 217 78q72 78 72 264q0 185 -74 262q-72 78 -215 78q-145 0 -217 -78q-72 -75 -72 -262zM109 561q0 -47 47 -47h481v80q0 47 -49 47h-479v-80zM238 1106q0 122 32 172q33 47 103 47q76 0 104 -47q31 -42 31 -172 q0 -127 -33 -174q-29 -45 -102 -45q-70 0 -105 47q-30 50 -30 172z" />
<glyph unicode="&#xbb;" horiz-adv-x="892" d="M82 920l168 -390q-41 -84 -66 -145q-32 -78 -65 -143q-10 -20 -13 -29l-10 -25q-5 -15 2 -32q11 -15 29 -15h127l190 389l-135 289q-2 5 -16 33q-8 24 -17 33q-10 17 -22 24q-11 11 -31 11h-141zM453 920l168 -390q-41 -84 -66 -145q-28 -68 -66 -143q-7 -14 -12 -29 l-10 -25q-5 -15 2 -32q11 -15 29 -15h127l190 389l-135 289q-2 5 -16 33q-8 24 -17 33q-10 17 -22 24q-11 11 -31 11h-141z" />
<glyph unicode="&#xbc;" horiz-adv-x="1845" d="M127 1198q0 -16 10 -29q11 -8 25 -8q17 0 41 8l145 54v-605q0 -18 12 -30q13 -13 33 -13h121v771q0 25 -12 43q-10 18 -41 18q-23 0 -35 -4q-21 -4 -43 -14q-8 -3 -66 -27q-11 -4 -104 -43l-86 -35v-86zM426 35q0 -35 41 -35h115l807 1323q8 13 8 29q0 34 -39 34h-115 l-807 -1323q-10 -17 -10 -28zM1143 236q0 -43 45 -43h346v-144q0 -43 45 -43h100v187h86v73q0 43 -43 43h-43v465q0 43 -45 43h-123q-67 -49 -129 -117q-56 -62 -106 -133q-30 -44 -82 -137q-30 -59 -51 -123v-71zM1276 309q31 95 98 193q64 96 160 180v-373h-258z" />
<glyph unicode="&#xbd;" horiz-adv-x="1845" d="M127 1198q0 -16 10 -29q11 -8 25 -8q17 0 41 8l145 54v-605q0 -18 12 -30q13 -13 33 -13h121v771q0 25 -12 43q-10 18 -41 18q-23 0 -35 -4q-21 -4 -43 -14q-8 -3 -66 -27q-11 -4 -104 -43l-86 -35v-86zM379 35q0 -35 41 -35h115l806 1323q9 15 9 29q0 34 -39 34h-115 l-807 -1323q-10 -17 -10 -28zM1178 49q0 -17 14 -31q15 -12 33 -12h512v88q0 41 -47 41h-359q5 42 31 82q24 33 68 66q10 7 26.5 19t30 21.5t26.5 16.5q27 16 86 55q69 48 99 97q33 50 33 122q0 67 -29 109q-25 40 -70 65q-50 28 -96 35q-35 8 -104 8q-68 0 -136 -12 q-75 -13 -104 -24v-64q0 -20 10 -33q12 -12 37 -12q16 0 74 8q41 8 104 8q94 0 123 -26q33 -23 33 -72q0 -33 -14 -55q-8 -16 -39 -43q-35 -26 -56 -39q-47 -28 -67 -41q-42 -26 -86 -61q-39 -29 -70 -74q-29 -40 -47 -88q-16 -44 -16 -109v-45z" />
<glyph unicode="&#xbe;" horiz-adv-x="1845" d="M92 637q0 -15 8 -31q6 -8 37 -22q7 -2 24.5 -6t20.5 -5q36 -4 54 -8q10 -1 28 -2t27 -2h47q153 0 233 62t80 182q0 73 -30 119q-31 52 -95 80q57 31 80 73q27 47 27 109q0 102 -70 157q-67 58 -221 58q-81 0 -135 -10q-59 -9 -103 -25v-63q0 -18 11 -33q10 -10 37 -10 q22 0 71 6t101 6q79 0 118 -25q35 -22 35 -78q0 -18 -6 -39q-8 -24 -18 -36q-13 -17 -41 -29q-20 -10 -70 -10h-115v-84q0 -43 47 -43h58q83 0 121 -27q39 -23 39 -90q0 -54 -37 -88q-41 -33 -152 -33q-49 0 -104 6q-19 2 -53.5 6.5t-53.5 6.5v-72zM463 35q0 -35 41 -35h114 l807 1323q9 15 9 29q0 34 -39 34h-115l-807 -1323q-10 -17 -10 -28zM1143 236q0 -43 45 -43h346v-144q0 -43 45 -43h100v187h86v73q0 43 -43 43h-43v465q0 43 -45 43h-123q-67 -49 -129 -117q-56 -62 -106 -133q-30 -44 -82 -137q-30 -59 -51 -123v-71zM1276 309 q31 95 98 193q64 96 160 180v-373h-258z" />
<glyph unicode="&#xbf;" horiz-adv-x="872" d="M86 -31q0 -92 33 -166q36 -67 84 -104q49 -33 123 -53q70 -15 143 -15q100 0 184 19q66 14 140 41v100q0 23 -9 35q-6 12 -34 12t-93 -12q-51 -10 -139 -10q-115 0 -170 43q-53 42 -53 141q0 29 8 61q11 33 23 52q16 24 45 53q9 9 31 32.5t36 37.5q53 49 80 79 q32 32 55 70q22 34 31 72q10 31 10 84q0 102 -59 102h-104q-3 -51 -13 -94q-6 -37 -26 -70q-16 -27 -58 -69q-14 -14 -92 -88q-40 -37 -74 -74q-39 -48 -55 -78q-24 -43 -35 -90q-12 -50 -12 -111zM377 952q0 -67 33 -100q33 -29 104 -29q73 0 104 31q33 29 33 98 q0 74 -33 103q-28 28 -104 28q-70 0 -104 -30q-33 -33 -33 -101z" />
<glyph unicode="&#xc0;" horiz-adv-x="1132" d="M66 51q0 -51 43 -51h157q5 33 15.5 98.5t15.5 98.5q7 37 19.5 103.5t17.5 94.5h457q11 -52 32 -172q16 -75 29 -176q6 -47 49 -47h174q-28 206 -78 422q-41 195 -96 381q-56 204 -100 323q-42 123 -94 250q-5 21 -21 33q-10 10 -37 10h-205q-42 -98 -92 -235 q-16 -44 -94 -293q-46 -156 -92 -340q-50 -208 -82 -379q-12 -58 -18 -121zM299 1808l197 -247q13 -16 28 -27q20 -8 35 -8h123q-23 67 -51 119q-22 49 -56 104q-14 29 -32 47q-12 12 -41 12h-203zM360 563q55 219 101 367q9 29 45 143t55 170q55 -152 105 -315 q42 -128 98 -365h-404z" />
<glyph unicode="&#xc1;" horiz-adv-x="1132" d="M66 51q0 -51 43 -51h157q5 33 15.5 98.5t15.5 98.5q7 37 19.5 103.5t17.5 94.5h457q11 -52 32 -172q16 -75 29 -176q6 -47 49 -47h174q-28 206 -78 422q-41 195 -96 381q-56 204 -100 323q-42 123 -94 250q-5 21 -21 33q-10 10 -37 10h-205q-42 -98 -92 -235 q-16 -44 -94 -293q-46 -156 -92 -340q-50 -208 -82 -379q-12 -58 -18 -121zM360 563q55 219 101 367q9 29 45 143t55 170q55 -152 105 -315q42 -128 98 -365h-404zM461 1571q-16 -45 28 -45h111l178 203q25 28 25 51q0 28 -37 28h-170q-25 -35 -45 -67q-7 -12 -20.5 -35.5 t-20.5 -36.5q-7 -14 -19.5 -35.5t-13.5 -23.5q-5 -9 -10 -22.5t-6 -16.5z" />
<glyph unicode="&#xc2;" horiz-adv-x="1132" d="M66 51q0 -51 43 -51h157q5 33 15.5 98.5t15.5 98.5q7 37 19.5 103.5t17.5 94.5h457q11 -52 32 -172q16 -75 29 -176q6 -47 49 -47h174q-28 206 -78 422q-41 195 -96 381q-56 204 -100 323q-42 123 -94 250q-5 21 -21 33q-10 10 -37 10h-205q-42 -98 -92 -235 q-16 -44 -94 -293q-46 -156 -92 -340q-50 -208 -82 -379q-12 -58 -18 -121zM309 1542q3 -16 31 -16h102l123 162l94 -125q22 -26 29 -31q12 -6 33 -6h123q-9 19 -39 65q-22 38 -43 72q-18 32 -45 66q-31 44 -35 49q-9 16 -25 22q-11 8 -34 8h-148q-38 -48 -47 -63 q-8 -12 -23.5 -34t-23.5 -34q-35 -50 -41 -59q-13 -18 -23 -37q-8 -16 -8 -39zM360 563q55 219 101 367q9 29 45 143t55 170q55 -152 105 -315q42 -128 98 -365h-404z" />
<glyph unicode="&#xc3;" horiz-adv-x="1132" d="M66 51q0 -51 43 -51h157q5 33 15.5 98.5t15.5 98.5q7 37 19.5 103.5t17.5 94.5h457q11 -52 32 -172q16 -75 29 -176q6 -47 49 -47h174q-28 206 -78 422q-41 195 -96 381q-56 204 -100 323q-42 123 -94 250q-5 21 -21 33q-10 10 -37 10h-205q-42 -98 -92 -235 q-16 -44 -94 -293q-46 -156 -92 -340q-50 -208 -82 -379q-12 -58 -18 -121zM252 1589q0 -23 8 -39q7 -10 29 -10h90q0 8 1 23t1 22q4 32 6 37q7 20 14 27q10 10 31 10q17 0 23 -2q6 0 18 -8q9 -4 27 -19q33 -22 41 -28q46 -32 71 -46q45 -20 95 -20q89 0 131 57 q41 55 41 144q0 27 -9 39q-5 10 -28 10h-90q0 -44 -9 -82q-6 -37 -45 -37q-4 0 -11 1t-11 1q-9 3 -19 8q-2 1 -10.5 7.5t-15.5 11.5q-5 4 -19 13t-22 15q-37 29 -72 45q-38 21 -94 21q-89 0 -131 -57q-41 -56 -41 -144zM360 563q55 219 101 367q9 29 45 143t55 170 q55 -152 105 -315q42 -128 98 -365h-404z" />
<glyph unicode="&#xc4;" horiz-adv-x="1132" d="M66 51q0 -51 43 -51h157q5 33 15.5 98.5t15.5 98.5q7 37 19.5 103.5t17.5 94.5h457q11 -52 32 -172q16 -75 29 -176q6 -47 49 -47h174q-28 206 -78 422q-41 195 -96 381q-56 204 -100 323q-42 123 -94 250q-5 21 -21 33q-10 10 -37 10h-205q-42 -98 -92 -235 q-16 -44 -94 -293q-46 -156 -92 -340q-50 -208 -82 -379q-12 -58 -18 -121zM256 1663q0 -57 29 -86q31 -25 90 -25q60 0 90 27q27 24 27 84q0 63 -29 86q-25 25 -88 25q-62 0 -92 -27q-27 -24 -27 -84zM360 563q55 219 101 367q9 29 45 143t55 170q55 -152 105 -315 q42 -128 98 -365h-404zM639 1663q0 -57 29 -86q31 -25 90 -25q60 0 90 27q26 23 26 84q0 64 -28 86q-25 25 -88 25q-62 0 -92 -27q-27 -24 -27 -84z" />
<glyph unicode="&#xc5;" horiz-adv-x="1132" d="M66 51q0 -51 43 -51h157q5 33 15.5 98.5t15.5 98.5q7 37 19.5 103.5t17.5 94.5h457q11 -52 32 -172q16 -75 29 -176q6 -47 49 -47h174q-28 206 -78 422q-41 195 -96 381q-56 204 -100 323q-42 123 -94 250q-5 21 -21 33q-10 10 -37 10h-205q-42 -98 -92 -235 q-16 -44 -94 -293q-46 -156 -92 -340q-50 -208 -82 -379q-12 -58 -18 -121zM356 1686q0 -88 52 -146q50 -53 157 -53q109 0 158 55q51 54 51 144q0 89 -51 143q-47 53 -158 53q-105 0 -157 -55q-52 -58 -52 -141zM360 563q55 219 101 367q9 29 45 143t55 170 q55 -152 105 -315q42 -128 98 -365h-404zM463 1686q0 100 102 100q103 0 103 -100q0 -103 -103 -103q-102 0 -102 103z" />
<glyph unicode="&#xc6;" horiz-adv-x="1634" d="M66 47q-3 -21 8 -35q12 -12 32 -12h154q10 36 57 193q38 113 70 202h397v-348q0 -47 50 -47h718v137q0 47 -51 47h-512v441h488v139q0 47 -50 47h-438v424h541v137q0 47 -49 47h-799q-79 -122 -147 -241q-69 -123 -152 -299q-99 -215 -150 -340q-63 -154 -133 -373 l-18 -60q-3 -17 -16 -59zM442 571q69 177 152 344q87 179 190 345v-689h-342z" />
<glyph unicode="&#xc7;" horiz-adv-x="1030" d="M115 709q0 -181 24 -316q23 -126 78 -219q56 -86 137 -135q83 -45 199 -57l-21 -54q-5 -13 -11.5 -31.5t-8.5 -23.5q-4 -16 -4 -23q0 -18 10 -28q5 -3 31 -10l18 -5q42 -9 62 -22q16 -11 16 -39q0 -31 -24 -43q-27 -10 -95 -10h-65v-53q0 -27 26 -37q15 -5 39 -9 q7 0 22 -1t23 -1q62 0 109 13q40 11 65 30q25 22 35 48q8 18 8 57q0 66 -32 94q-27 32 -103 47l-28 6l34 90q98 6 172 21q84 20 127 37v100q0 49 -51 49q-42 0 -96 -10q-68 -10 -149 -10q-82 0 -146 22q-59 23 -102 84q-39 59 -60 168q-20 123 -20 281q0 148 16 260 q17 100 56 164q43 65 102 88q57 24 156 24q86 0 151 -8q85 -7 131 -14v96q0 31 -10 43q-9 18 -33 27q-48 20 -121 31q-64 10 -147 10q-147 0 -240 -41q-99 -40 -162 -127q-59 -82 -90 -228q-28 -143 -28 -335z" />
<glyph unicode="&#xc8;" horiz-adv-x="1050" d="M143 47q0 -47 50 -47h776v129q0 23 -15 35q-12 12 -34 12h-562v453h533v131q0 25 -11 36t-36 11h-486v436h586v129q0 25 -11 36t-36 11h-754v-1372zM276 1808l197 -247q12 -14 29 -27q20 -8 35 -8h122q-23 67 -51 119q-26 56 -55 104q-13 27 -33 47q-12 12 -41 12h-203z " />
<glyph unicode="&#xc9;" horiz-adv-x="1050" d="M143 47q0 -47 50 -47h776v129q0 23 -15 35q-12 12 -34 12h-562v453h533v131q0 25 -11 36t-36 11h-486v436h586v129q0 25 -11 36t-36 11h-754v-1372zM438 1571q-16 -45 29 -45h111l178 203q24 27 24 51q0 28 -37 28h-170q-25 -35 -45 -67q-7 -12 -20.5 -35.5t-20.5 -36.5 q-12 -23 -32 -59q-5 -9 -10.5 -22.5t-6.5 -16.5z" />
<glyph unicode="&#xca;" horiz-adv-x="1050" d="M143 47q0 -47 50 -47h776v129q0 23 -15 35q-12 12 -34 12h-562v453h533v131q0 25 -11 36t-36 11h-486v436h586v129q0 25 -11 36t-36 11h-754v-1372zM287 1542q3 -16 30 -16h103l123 162l94 -125q22 -26 29 -31q12 -6 32 -6h123q-9 19 -39 65q-22 38 -43 72q-18 32 -45 66 q-31 44 -35 49q-10 16 -24 22q-11 8 -35 8h-147q-38 -48 -47 -63q-8 -11 -24 -34t-24 -34q-35 -50 -41 -59q-10 -14 -22 -37q-8 -16 -8 -39z" />
<glyph unicode="&#xcb;" horiz-adv-x="1050" d="M143 47q0 -47 50 -47h776v129q0 23 -15 35q-12 12 -34 12h-562v453h533v131q0 25 -11 36t-36 11h-486v436h586v129q0 25 -11 36t-36 11h-754v-1372zM233 1663q0 -57 29 -86q31 -25 90 -25q60 0 90 27q27 24 27 84q0 63 -29 86q-25 25 -88 25q-62 0 -92 -27 q-27 -24 -27 -84zM616 1663q0 -57 29 -86q31 -25 90 -25q60 0 90 27q27 24 27 84q0 63 -29 86q-25 25 -88 25q-62 0 -92 -27q-27 -24 -27 -84z" />
<glyph unicode="&#xcc;" horiz-adv-x="501" d="M-10 1808l196 -247q12 -14 29 -27q20 -8 35 -8h123q-23 67 -51 119q-22 49 -56 104q-13 27 -33 47q-12 12 -40 12h-203zM143 47q0 -47 50 -47h165v1372q0 47 -49 47h-166v-1372z" />
<glyph unicode="&#xcd;" horiz-adv-x="501" d="M143 47q0 -47 50 -47h165v1372q0 47 -49 47h-166v-1372zM150 1571q-16 -45 28 -45h111l178 203q25 28 25 51q0 28 -37 28h-170q-25 -35 -45 -67q-7 -12 -20.5 -35.5t-20.5 -36.5q-7 -14 -19.5 -35.5t-13.5 -23.5q-5 -9 -10 -22.5t-6 -16.5z" />
<glyph unicode="&#xce;" horiz-adv-x="501" d="M0 1542q3 -16 31 -16h102l123 162l94 -125q22 -26 29 -31q12 -6 33 -6h123q-9 19 -39 65q-22 38 -43 72q-18 32 -45 66q-31 44 -35 49q-9 16 -25 22q-11 8 -35 8h-147q-38 -48 -47 -63q-8 -12 -23.5 -34t-23.5 -34q-35 -50 -41 -59q-13 -18 -23 -37q-8 -16 -8 -39z M143 47q0 -47 50 -47h165v1372q0 47 -49 47h-166v-1372z" />
<glyph unicode="&#xcf;" horiz-adv-x="501" d="M-53 1663q0 -58 28 -86q31 -25 91 -25t90 27q26 23 26 84q0 64 -28 86q-25 25 -88 25t-93 -27q-26 -23 -26 -84zM143 47q0 -47 50 -47h165v1372q0 47 -49 47h-166v-1372zM330 1663q0 -58 28 -86q31 -25 91 -25t90 27q26 23 26 84q0 64 -28 86q-25 25 -88 25t-93 -27 q-26 -23 -26 -84z" />
<glyph unicode="&#xd0;" horiz-adv-x="1286" d="M41 700q0 -43 45 -43h111v-610q0 -47 49 -47h381q138 0 247 39q106 41 168 123q70 89 99 219q30 117 30 332t-32 340q-29 135 -99 223q-66 84 -170 121t-247 37q-88 0 -215 -13q-161 -17 -211 -26v-590h-156v-105zM412 172v485h245v105q0 43 -47 43h-198v442q52 8 94 10 q46 5 108 5q93 0 160 -25q65 -23 105 -84q38 -54 57 -166q16 -93 16 -270q0 -175 -20 -281q-16 -99 -64 -166q-42 -56 -108 -77q-75 -21 -154 -21h-194z" />
<glyph unicode="&#xd1;" horiz-adv-x="1255" d="M143 47q0 -47 50 -47h155v1075q33 -56 68 -123q2 -4 90 -166q79 -146 102 -192q68 -125 105 -199q64 -121 96 -188q52 -99 78 -160q21 -47 55 -47h170v1372q0 47 -49 47h-156v-1042q-45 96 -82 162q-67 131 -96 184q-50 100 -100 190q-31 63 -101 183q-14 24 -43 77.5 t-45 79.5q-10 18 -32.5 59.5t-32.5 59.5q-13 23 -25 35q-10 12 -35 12h-172v-1372zM309 1589q0 -23 8 -39q7 -10 29 -10h90q0 8 1 23t1 22q4 32 6 37q6 18 15 27q10 10 30 10q17 0 23 -2q6 0 18 -8q9 -4 27 -19q33 -22 41 -28q42 -29 72 -46q45 -20 94 -20q89 0 131 57 q41 55 41 144q0 28 -8 39q-5 10 -29 10h-90q0 -49 -8 -82q-6 -37 -45 -37q-4 0 -11.5 1t-11.5 1q-6 2 -18 8q-2 2 -11 8.5t-16 10.5q-5 4 -19 13t-22 15q-37 29 -72 45q-37 21 -94 21q-89 0 -131 -57q-41 -56 -41 -144z" />
<glyph unicode="&#xd2;" horiz-adv-x="1255" d="M115 709q0 -229 37 -371q39 -146 104 -223q68 -80 162 -111q91 -29 209 -29q113 0 211 31q92 28 161 109q67 78 105 223q37 142 37 371q0 231 -37 370q-38 145 -105 224q-69 82 -163 110q-91 29 -209 29q-111 0 -209 -31q-97 -32 -162 -108q-66 -78 -104 -224 q-37 -139 -37 -370zM334 709q0 141 14 264q15 111 47 170q37 66 90 92q53 27 142 27t143 -29q56 -26 90 -92q35 -60 47 -170q15 -105 15 -262t-15 -265q-12 -103 -49 -170q-34 -63 -90 -92q-53 -26 -141 -26q-83 0 -144 28q-53 29 -90 92q-32 62 -47 170q-12 108 -12 263z M360 1808l197 -247q12 -14 29 -27q20 -8 35 -8h122q-23 67 -51 119q-26 56 -55 104q-13 27 -33 47q-12 12 -41 12h-203z" />
<glyph unicode="&#xd3;" horiz-adv-x="1255" d="M115 709q0 -229 37 -371q39 -146 104 -223q68 -80 162 -111q91 -29 209 -29q113 0 211 31q92 28 161 109q67 78 105 223q37 142 37 371q0 231 -37 370q-38 145 -105 224q-69 82 -163 110q-91 29 -209 29q-111 0 -209 -31q-97 -32 -162 -108q-66 -78 -104 -224 q-37 -139 -37 -370zM334 709q0 141 14 264q15 111 47 170q37 66 90 92q53 27 142 27t143 -29q56 -26 90 -92q35 -60 47 -170q15 -105 15 -262t-15 -265q-12 -103 -49 -170q-34 -63 -90 -92q-53 -26 -141 -26q-83 0 -144 28q-53 29 -90 92q-32 62 -47 170q-12 108 -12 263z M522 1571q-16 -45 29 -45h111l178 203q24 27 24 51q0 28 -37 28h-170q-25 -35 -45 -67q-7 -12 -20.5 -35.5t-20.5 -36.5q-12 -23 -32 -59q-5 -9 -10 -22.5t-7 -16.5z" />
<glyph unicode="&#xd4;" horiz-adv-x="1255" d="M115 709q0 -229 37 -371q39 -146 104 -223q68 -80 162 -111q91 -29 209 -29q113 0 211 31q92 28 161 109q67 78 105 223q37 142 37 371q0 231 -37 370q-38 145 -105 224q-69 82 -163 110q-91 29 -209 29q-111 0 -209 -31q-97 -32 -162 -108q-66 -78 -104 -224 q-37 -139 -37 -370zM334 709q0 141 14 264q15 111 47 170q37 66 90 92q53 27 142 27t143 -29q56 -26 90 -92q35 -60 47 -170q15 -105 15 -262t-15 -265q-12 -103 -49 -170q-34 -63 -90 -92q-53 -26 -141 -26q-83 0 -144 28q-53 29 -90 92q-32 62 -47 170q-12 108 -12 263z M371 1542q3 -16 30 -16h103l123 162l94 -125q22 -26 29 -31q12 -6 32 -6h123q-9 19 -39 65q-22 38 -43 72q-18 32 -45 66q-31 44 -35 49q-10 16 -24 22q-11 8 -35 8h-147q-43 -56 -48 -63q-8 -12 -23.5 -34t-23.5 -34q-35 -50 -41 -59q-10 -14 -22 -37q-8 -16 -8 -39z" />
<glyph unicode="&#xd5;" horiz-adv-x="1255" d="M115 709q0 -229 37 -371q39 -146 104 -223q68 -80 162 -111q91 -29 209 -29q113 0 211 31q92 28 161 109q67 78 105 223q37 142 37 371q0 231 -37 370q-38 145 -105 224q-69 82 -163 110q-91 29 -209 29q-111 0 -209 -31q-97 -32 -162 -108q-66 -78 -104 -224 q-37 -139 -37 -370zM313 1589q0 -21 9 -39q7 -10 28 -10h90q0 8 1 23t1 22q4 28 7 37q7 20 14 27q10 10 31 10q16 0 22 -2q7 0 19 -8q6 -3 26 -19q33 -22 41 -28q42 -29 72 -46q45 -20 94 -20q89 0 131 57q41 55 41 144q0 28 -8 39q-5 10 -29 10h-90q0 -49 -8 -82 q-6 -37 -45 -37q-4 0 -11.5 1t-11.5 1q-6 2 -18 8q-2 2 -11 8.5t-16 10.5q-5 4 -19 13t-22 15q-38 30 -71 45q-37 21 -95 21q-89 0 -131 -57q-41 -56 -41 -144zM334 709q0 141 14 264q15 111 47 170q37 66 90 92q53 27 142 27t143 -29q56 -26 90 -92q35 -60 47 -170 q15 -105 15 -262t-15 -265q-12 -103 -49 -170q-34 -63 -90 -92q-53 -26 -141 -26q-83 0 -144 28q-53 29 -90 92q-32 62 -47 170q-12 108 -12 263z" />
<glyph unicode="&#xd6;" horiz-adv-x="1255" d="M115 709q0 -229 37 -371q39 -146 104 -223q68 -80 162 -111q91 -29 209 -29q113 0 211 31q92 28 161 109q67 78 105 223q37 142 37 371q0 231 -37 370q-38 145 -105 224q-69 82 -163 110q-91 29 -209 29q-111 0 -209 -31q-97 -32 -162 -108q-66 -78 -104 -224 q-37 -139 -37 -370zM317 1663q0 -57 29 -86q31 -25 90 -25q60 0 90 27q27 24 27 84q0 63 -29 86q-25 25 -88 25q-62 0 -92 -27q-27 -24 -27 -84zM334 709q0 141 14 264q15 111 47 170q37 66 90 92q53 27 142 27t143 -29q56 -26 90 -92q35 -60 47 -170q15 -105 15 -262 t-15 -265q-12 -103 -49 -170q-34 -63 -90 -92q-53 -26 -141 -26q-83 0 -144 28q-53 29 -90 92q-32 62 -47 170q-12 108 -12 263zM700 1663q0 -57 29 -86q31 -25 90 -25q60 0 90 27q27 24 27 84q0 63 -29 86q-25 25 -88 25q-62 0 -92 -27q-27 -24 -27 -84z" />
<glyph unicode="&#xd7;" d="M178 946l246 -248l-211 -209q-29 -33 0 -67l90 -90l246 243l211 -213q38 -31 69 0l91 91l-246 245l209 213q18 18 18 35q3 17 -16 33l-92 90l-244 -246l-211 213q-34 34 -68 0z" />
<glyph unicode="&#xd8;" horiz-adv-x="1255" d="M115 -57q11 -15 28 -15h95l75 131q66 -47 144 -65q84 -19 172 -19q114 0 209 31q91 29 161 111q68 83 105 223q37 142 37 367q0 205 -29 333q-27 135 -82 217l105 187q12 18 2 31q-5 12 -27 12h-96l-76 -127q-57 46 -141 65q-72 17 -174 17q-109 0 -207 -31 q-95 -31 -160 -108q-66 -78 -104 -224q-37 -139 -37 -370q0 -190 28 -330q31 -135 78 -217l-104 -187q-8 -16 -2 -32zM334 707q0 143 14 266q16 114 47 172q37 67 90 90q58 27 142 27q69 0 121 -19q54 -18 86 -59l-476 -795q-15 69 -20 137q-4 55 -4 181zM420 233l475 801 q14 -48 20 -137q7 -96 7 -192q0 -155 -15 -263q-12 -104 -49 -168q-36 -64 -90 -92q-53 -26 -143 -26q-69 0 -121 18q-48 18 -84 59z" />
<glyph unicode="&#xd9;" horiz-adv-x="1216" d="M135 502q0 -140 33 -252q37 -107 92 -162q58 -58 150 -86q95 -25 202 -25q249 0 361 127q108 126 108 398v870q0 24 -14 35q-12 12 -35 12h-166v-938q0 -75 -12 -137q-13 -62 -39 -100q-26 -39 -78 -64q-47 -20 -127 -20q-76 0 -131 22q-51 25 -78 64q-31 49 -41 100 t-10 133v893q0 47 -49 47h-166v-917zM342 1808l197 -247q13 -16 28 -27q20 -8 35 -8h123q-23 67 -51 119q-22 49 -56 104q-14 29 -32 47q-12 12 -41 12h-203z" />
<glyph unicode="&#xda;" horiz-adv-x="1216" d="M135 502q0 -140 33 -252q37 -107 92 -162q58 -58 150 -86q95 -25 202 -25q249 0 361 127q108 126 108 398v870q0 24 -14 35q-12 12 -35 12h-166v-938q0 -75 -12 -137q-13 -62 -39 -100q-26 -39 -78 -64q-47 -20 -127 -20q-76 0 -131 22q-51 25 -78 64q-31 49 -41 100 t-10 133v893q0 47 -49 47h-166v-917zM504 1571q-16 -45 28 -45h111l178 203q25 28 25 51q0 28 -37 28h-170q-25 -35 -45 -67q-7 -12 -20.5 -35.5t-20.5 -36.5q-7 -14 -19.5 -35.5t-13.5 -23.5q-4 -9 -9 -22.5t-7 -16.5z" />
<glyph unicode="&#xdb;" horiz-adv-x="1216" d="M135 502q0 -140 33 -252q37 -107 92 -162q58 -58 150 -86q95 -25 202 -25q249 0 361 127q108 126 108 398v870q0 24 -14 35q-12 12 -35 12h-166v-938q0 -75 -12 -137q-13 -62 -39 -100q-26 -39 -78 -64q-47 -20 -127 -20q-76 0 -131 22q-51 25 -78 64q-31 49 -41 100 t-10 133v893q0 47 -49 47h-166v-917zM352 1542q3 -16 31 -16h102l123 162l94 -125q22 -26 29 -31q12 -6 33 -6h123q-9 19 -39 65q-22 38 -43 72q-18 32 -45 66q-31 44 -35 49q-9 16 -25 22q-11 8 -34 8h-148q-38 -48 -47 -63q-8 -12 -23.5 -34t-23.5 -34q-35 -50 -41 -59 q-13 -18 -23 -37q-8 -16 -8 -39z" />
<glyph unicode="&#xdc;" horiz-adv-x="1216" d="M135 502q0 -140 33 -252q37 -107 92 -162q58 -58 150 -86q95 -25 202 -25q249 0 361 127q108 126 108 398v870q0 24 -14 35q-12 12 -35 12h-166v-938q0 -75 -12 -137q-13 -62 -39 -100q-26 -39 -78 -64q-47 -20 -127 -20q-76 0 -131 22q-51 25 -78 64q-31 49 -41 100 t-10 133v893q0 47 -49 47h-166v-917zM299 1663q0 -57 29 -86q31 -25 90 -25q60 0 90 27q27 24 27 84q0 63 -29 86q-25 25 -88 25q-62 0 -92 -27q-27 -24 -27 -84zM682 1663q0 -57 29 -86q31 -25 90 -25q60 0 90 27q27 24 27 84q0 63 -29 86q-25 25 -88 25q-62 0 -92 -27 q-27 -24 -27 -84z" />
<glyph unicode="&#xdd;" horiz-adv-x="1075" d="M39 1419q34 -116 74 -225q10 -25 39 -100t47 -117q38 -84 104 -215q25 -47 127 -223v-492q0 -47 49 -47h166v539q76 129 115 200q48 85 96 195q50 106 84 199q34 89 76 219q12 29 -2 49q-10 18 -41 18h-160q-7 -45 -37 -139q-15 -50 -63 -178q-60 -151 -80 -195 q-51 -117 -90 -186q-28 51 -86 174q-69 164 -72 170q-22 63 -57 158q-5 15 -21.5 65.5t-23.5 75.5q-6 30 -19 43q-7 12 -39 12h-186zM434 1571q-16 -45 29 -45h110l179 203q24 27 24 51q0 28 -37 28h-170q-25 -35 -45 -67q-7 -12 -20.5 -35.5t-20.5 -36.5q-12 -23 -32 -59 q-4 -9 -9.5 -22.5t-7.5 -16.5z" />
<glyph unicode="&#xde;" horiz-adv-x="1114" d="M143 47q0 -47 50 -47h161v305q45 -8 135 -20q70 -6 125 -6q208 0 318 110t110 354q0 249 -116 347q-115 100 -348 100q-74 0 -136 -6q-74 -7 -88 -10v198q0 24 -14 35q-12 12 -35 12h-162v-1372zM354 473v524q59 9 92 13q39 4 111 4q76 0 117 -10q48 -8 86 -41 q34 -27 53 -86q16 -49 16 -144q0 -90 -16 -139q-14 -51 -49 -86q-33 -33 -80 -47q-50 -12 -115 -12q-34 0 -108 8q-18 3 -53 8t-54 8z" />
<glyph unicode="&#xdf;" horiz-adv-x="1118" d="M115 47q0 -47 49 -47h166v1087q0 121 49 179q46 57 172 57q88 0 141 -33q56 -29 56 -125q0 -63 -31 -108q-29 -39 -64 -74q-65 -65 -100 -117q-35 -49 -35 -131q0 -45 12 -80q11 -28 37 -57q24 -24 60 -49q11 -7 38 -23.5t44 -27.5q25 -14 61 -41q26 -18 41 -41 q20 -23 25 -47q8 -21 8 -64q0 -78 -41 -119q-39 -39 -152 -39q-11 0 -41 2t-43 3q-20 2 -47.5 3.5t-34.5 2.5v-88q0 -40 41 -58q25 -10 80 -20q50 -6 101 -6q168 0 254 77t86 238q0 67 -15 117q-10 40 -39 86q-22 35 -55 61q-34 31 -64 49q-84 60 -114 80q-37 30 -37 68 q0 35 25 63q20 25 73 78q46 46 64 66q23 23 47 63q21 34 29 68q10 31 10 84q0 160 -111 233q-112 74 -303 74q-137 0 -219 -33q-87 -31 -135 -90q-50 -59 -70 -139q-18 -79 -18 -176v-1006z" />
<glyph unicode="&#xe0;" horiz-adv-x="1019" d="M84 313q0 -153 78 -243q82 -88 237 -88q111 0 185 41q79 45 127 90l8 -62q2 -6 6 -18.5t6 -18.5q8 -14 43 -14h125v702q0 86 -20 150q-19 71 -66 115q-46 49 -125 73q-71 25 -194 25q-100 0 -185 -14q-83 -11 -162 -37v-88q0 -19 13 -35q12 -12 37 -12q16 0 94 10 q49 8 162 8q135 0 188 -39q55 -37 55 -145v-70h-211q-94 0 -159 -16q-76 -16 -129 -54q-55 -37 -84 -100q-29 -59 -29 -160zM250 1477l184 -267q23 -36 64 -36h112q-63 161 -104 258q-9 26 -25 36q-9 9 -41 9h-190zM270 319q0 35 11 72q14 40 32 58q24 24 64 36 q38 13 102 13h217v-254q-45 -42 -102 -74q-60 -31 -141 -31q-92 0 -138 43q-45 45 -45 137z" />
<glyph unicode="&#xe1;" horiz-adv-x="1019" d="M84 313q0 -153 78 -243q82 -88 237 -88q111 0 185 41q79 45 127 90l8 -62q2 -6 6 -18.5t6 -18.5q8 -14 43 -14h125v702q0 86 -20 150q-19 71 -66 115q-46 49 -125 73q-71 25 -194 25q-100 0 -185 -14q-83 -11 -162 -37v-88q0 -19 13 -35q12 -12 37 -12q16 0 94 10 q49 8 162 8q135 0 188 -39q55 -37 55 -145v-70h-211q-94 0 -159 -16q-76 -16 -129 -54q-55 -37 -84 -100q-29 -59 -29 -160zM270 319q0 35 11 72q14 40 32 58q24 24 64 36q38 13 102 13h217v-254q-45 -42 -102 -74q-60 -31 -141 -31q-92 0 -138 43q-45 45 -45 137zM408 1186 q9 -12 28 -12h105l168 217l20 30q8 13 8 29q0 27 -35 27h-167q-42 -71 -66 -123q-19 -39 -59 -133q-9 -18 -2 -35z" />
<glyph unicode="&#xe2;" horiz-adv-x="1019" d="M84 313q0 -153 78 -243q82 -88 237 -88q111 0 185 41q79 45 127 90l8 -62q2 -6 6 -18.5t6 -18.5q8 -14 43 -14h125v702q0 86 -20 150q-19 71 -66 115q-46 49 -125 73q-71 25 -194 25q-100 0 -185 -14q-83 -11 -162 -37v-88q0 -19 13 -35q12 -12 37 -12q16 0 94 10 q49 8 162 8q135 0 188 -39q55 -37 55 -145v-70h-211q-94 0 -159 -16q-76 -16 -129 -54q-55 -37 -84 -100q-29 -59 -29 -160zM256 1186q6 -12 29 -12h102l117 176l92 -140q15 -21 27 -30q12 -6 32 -6h111q-6 16 -35 67q-18 37 -39 72q-13 27 -41 67q-6 12 -35 58 q-20 39 -55 39h-141q-24 -35 -86 -129q-39 -64 -74 -127q-10 -20 -4 -35zM270 319q0 35 11 72q14 40 32 58q24 24 64 36q38 13 102 13h217v-254q-45 -42 -102 -74q-60 -31 -141 -31q-92 0 -138 43q-45 45 -45 137z" />
<glyph unicode="&#xe3;" horiz-adv-x="1019" d="M84 313q0 -153 78 -243q82 -88 237 -88q111 0 185 41q79 45 127 90l8 -62q2 -6 6 -18.5t6 -18.5q8 -14 43 -14h125v702q0 86 -20 150q-19 71 -66 115q-46 49 -125 73q-71 25 -194 25q-100 0 -185 -14q-83 -11 -162 -37v-88q0 -19 13 -35q12 -12 37 -12q16 0 94 10 q49 8 162 8q135 0 188 -39q55 -37 55 -145v-70h-211q-94 0 -159 -16q-76 -16 -129 -54q-55 -37 -84 -100q-29 -59 -29 -160zM190 1241q0 -25 7 -39q5 -10 28 -10h92q0 8 1 23t1 22q4 28 7 37q6 18 14 26q11 11 31 11q16 0 22 -2q5 0 19 -9q9 -5 26 -18q21 -14 41 -29 q35 -24 72 -45q45 -20 94 -20q89 0 131 57q41 55 41 144q0 26 -6 38q-5 11 -29 11h-92q0 -49 -8 -82q-6 -37 -45 -37q-4 0 -11.5 1t-11.5 1q-6 2 -18 8q-2 1 -11 7.5t-16 11.5q-5 4 -19 13t-22 15q-38 30 -71 45q-37 21 -95 21q-88 0 -131 -58q-41 -56 -41 -143zM270 319 q0 35 11 72q14 40 32 58q24 24 64 36q38 13 102 13h217v-254q-45 -42 -102 -74q-60 -31 -141 -31q-92 0 -138 43q-45 45 -45 137z" />
<glyph unicode="&#xe4;" horiz-adv-x="1019" d="M84 313q0 -153 78 -243q82 -88 237 -88q111 0 185 41q79 45 127 90l8 -62q2 -6 6 -18.5t6 -18.5q8 -14 43 -14h125v702q0 86 -20 150q-19 71 -66 115q-46 49 -125 73q-71 25 -194 25q-100 0 -185 -14q-83 -11 -162 -37v-88q0 -19 13 -35q12 -12 37 -12q16 0 94 10 q49 8 162 8q135 0 188 -39q55 -37 55 -145v-70h-211q-94 0 -159 -16q-76 -16 -129 -54q-55 -37 -84 -100q-29 -59 -29 -160zM195 1319q0 -58 28 -86q31 -25 90 -25q60 0 90 27q27 24 27 84q0 63 -29 86q-25 25 -88 25q-62 0 -92 -27q-26 -23 -26 -84zM270 319q0 35 11 72 q14 40 32 58q24 24 64 36q38 13 102 13h217v-254q-45 -42 -102 -74q-60 -31 -141 -31q-92 0 -138 43q-45 45 -45 137zM578 1319q0 -58 28 -86q31 -25 90 -25q60 0 90 27q27 24 27 84q0 63 -29 86q-25 25 -88 25q-62 0 -92 -27q-26 -23 -26 -84z" />
<glyph unicode="&#xe5;" horiz-adv-x="1019" d="M84 313q0 -153 78 -243q82 -88 237 -88q111 0 185 41q79 45 127 90l8 -62q2 -6 6 -18.5t6 -18.5q8 -14 43 -14h125v702q0 86 -20 150q-19 71 -66 115q-46 49 -125 73q-71 25 -194 25q-100 0 -185 -14q-83 -11 -162 -37v-88q0 -19 13 -35q12 -12 37 -12q16 0 94 10 q49 8 162 8q135 0 188 -39q55 -37 55 -145v-70h-211q-94 0 -159 -16q-76 -16 -129 -54q-55 -37 -84 -100q-29 -59 -29 -160zM270 319q0 35 11 72q14 40 32 58q24 24 64 36q38 13 102 13h217v-254q-45 -42 -102 -74q-60 -31 -141 -31q-92 0 -138 43q-45 45 -45 137zM295 1366 q0 -90 51 -147q53 -56 156 -56q109 0 160 54t51 151q0 81 -51 135q-50 56 -156 56q-109 0 -160 -54t-51 -139zM401 1362q0 100 103 100q102 0 102 -100q0 -102 -102 -102q-103 0 -103 102z" />
<glyph unicode="&#xe6;" horiz-adv-x="1552" d="M84 315q0 -82 27 -155q28 -64 69 -105q43 -38 109 -57q57 -16 137 -16q114 0 192 34q87 39 150 97q59 -78 141 -107q86 -29 199 -29q87 0 184 17q89 19 131 35v82q0 22 -12 34q-12 15 -39 15q-29 0 -86 -8q-92 -9 -143 -9q-76 0 -139 17q-60 20 -84 51q-29 36 -41 96 q-8 39 -15 144h568q9 23 16 79q6 50 6 111q0 89 -18 166q-19 86 -58 135q-40 58 -110 92q-59 33 -176 33q-217 0 -308 -152q-34 71 -114 111q-71 39 -197 39q-79 0 -164 -14q-87 -11 -162 -37v-88q0 -19 13 -35q12 -12 35 -12q4 0 36 4q1 0 58 6q3 1 71 6q14 2 80 2 q134 0 183 -41q51 -37 51 -145v-80h-152q-95 0 -184 -13q-83 -13 -137 -47q-59 -37 -88 -96t-29 -160zM264 322q0 23 8 63q8 31 29 55q29 29 59 41q38 17 105 17h209v-27q0 -69 6 -131t20 -107q-39 -34 -100 -65q-60 -29 -143 -29q-28 0 -78 8q-30 8 -62 29q-23 20 -38 57 q-15 47 -15 89zM864 588q3 68 13 135q13 69 32 100q24 44 66 64q40 22 106 22q110 0 150 -63q41 -58 41 -191v-67h-408z" />
<glyph unicode="&#xe7;" horiz-adv-x="868" d="M100 518q0 -229 76 -375q75 -135 260 -159l-20 -56q-14 -42 -21 -55q-4 -16 -4 -25q0 -16 10 -26q5 -3 31 -10l19 -5q41 -8 61 -22q16 -11 16 -37q0 -33 -24 -45q-27 -10 -94 -10h-66v-53q0 -27 27 -37q15 -5 39 -9q7 0 22 -1t23 -1q61 0 108 13q41 11 66 30q25 22 35 48 q8 18 8 57q0 65 -33 94q-28 32 -102 47l-29 6l35 90q67 5 141 19q68 15 111 33v86q0 49 -50 49q-30 0 -79 -8q-56 -6 -113 -6q-54 0 -104 16q-51 21 -76 57q-29 42 -47 115q-17 83 -17 190q0 89 15 177q14 71 43 112q31 44 79 62q44 16 117 16q45 0 103 -6q93 -9 125 -15v89 q0 24 -11 38q-10 19 -30 27q-29 15 -99 27q-56 10 -137 10q-209 0 -313 -131q-101 -128 -101 -416z" />
<glyph unicode="&#xe8;" horiz-adv-x="1015" d="M100 518q0 -134 27 -252q25 -96 84 -168q57 -62 141 -92q92 -29 203 -29q100 0 197 17q87 18 133 35v86q0 45 -47 45q-30 0 -90 -8q-97 -9 -146 -9q-81 0 -147 17q-59 19 -93 53q-31 34 -47 92q-12 58 -18 139h598q9 24 16 84q7 65 7 115q0 94 -17 166q-14 76 -59 133 q-43 58 -119 92q-65 33 -195 33q-104 0 -186 -31q-81 -31 -135 -96q-53 -64 -80 -170q-27 -118 -27 -252zM262 1477l184 -267q23 -36 64 -36h113q-53 135 -105 258q-9 27 -24 36q-9 9 -41 9h-191zM297 590q3 80 14 135q11 56 37 100q26 42 72 64q43 22 115 22q117 0 157 -67 q39 -61 39 -197v-26q0 -17 -2 -31h-432z" />
<glyph unicode="&#xe9;" horiz-adv-x="1015" d="M100 518q0 -134 27 -252q25 -96 84 -168q57 -62 141 -92q92 -29 203 -29q100 0 197 17q87 18 133 35v86q0 45 -47 45q-30 0 -90 -8q-97 -9 -146 -9q-81 0 -147 17q-59 19 -93 53q-31 34 -47 92q-12 58 -18 139h598q9 24 16 84q7 65 7 115q0 94 -17 166q-14 76 -59 133 q-43 58 -119 92q-65 33 -195 33q-104 0 -186 -31q-81 -31 -135 -96q-53 -64 -80 -170q-27 -118 -27 -252zM297 590q3 80 14 135q11 56 37 100q26 42 72 64q43 22 115 22q117 0 157 -67q39 -61 39 -197v-26q0 -17 -2 -31h-432zM424 1186q9 -12 29 -12h104l168 217l20 30 q9 15 9 29q0 27 -35 27h-168q-42 -71 -66 -123q-19 -39 -59 -133q-9 -18 -2 -35z" />
<glyph unicode="&#xea;" horiz-adv-x="1015" d="M100 518q0 -134 27 -252q25 -96 84 -168q57 -62 141 -92q92 -29 203 -29q100 0 197 17q87 18 133 35v86q0 45 -47 45q-30 0 -90 -8q-97 -9 -146 -9q-81 0 -147 17q-59 19 -93 53q-31 34 -47 92q-12 58 -18 139h598q9 24 16 84q7 65 7 115q0 94 -17 166q-14 76 -59 133 q-43 58 -119 92q-65 33 -195 33q-104 0 -186 -31q-81 -31 -135 -96q-53 -64 -80 -170q-27 -118 -27 -252zM272 1186q6 -12 29 -12h102l117 176l92 -140q15 -21 27 -30q12 -6 33 -6h110q-9 22 -34 67q-18 37 -39 72q-13 27 -41 67q-6 12 -35 58q-20 39 -55 39h-142 q-24 -35 -86 -129q-39 -64 -74 -127q-10 -20 -4 -35zM297 590q3 80 14 135q11 56 37 100q26 42 72 64q43 22 115 22q117 0 157 -67q39 -61 39 -197v-26q0 -17 -2 -31h-432z" />
<glyph unicode="&#xeb;" horiz-adv-x="1015" d="M100 518q0 -134 27 -252q25 -96 84 -168q57 -62 141 -92q92 -29 203 -29q100 0 197 17q87 18 133 35v86q0 45 -47 45q-30 0 -90 -8q-97 -9 -146 -9q-81 0 -147 17q-59 19 -93 53q-31 34 -47 92q-12 58 -18 139h598q9 24 16 84q7 65 7 115q0 94 -17 166q-14 76 -59 133 q-43 58 -119 92q-65 33 -195 33q-104 0 -186 -31q-81 -31 -135 -96q-53 -64 -80 -170q-27 -118 -27 -252zM211 1319q0 -57 29 -86q31 -25 90 -25q60 0 90 27q26 23 26 84q0 64 -28 86q-25 25 -88 25q-62 0 -92 -27q-27 -24 -27 -84zM297 590q3 80 14 135q11 56 37 100 q26 42 72 64q43 22 115 22q117 0 157 -67q39 -61 39 -197v-26q0 -17 -2 -31h-432zM594 1319q0 -57 29 -86q31 -25 90 -25q60 0 90 27q26 23 26 84q0 64 -28 86q-25 25 -88 25q-62 0 -92 -27q-27 -24 -27 -84z" />
<glyph unicode="&#xec;" horiz-adv-x="464" d="M-20 1477l184 -267q23 -36 63 -36h113q-63 161 -104 258q-9 26 -25 36q-9 9 -41 9h-190zM129 47q0 -47 49 -47h158v995q0 47 -49 47h-158v-995z" />
<glyph unicode="&#xed;" horiz-adv-x="464" d="M129 47q0 -47 49 -47h158v995q0 47 -49 47h-158v-995zM139 1186q9 -12 29 -12h104l168 217q3 5 11 15t10 15q8 13 8 29q0 27 -35 27h-168q-37 -63 -65 -123q-27 -55 -60 -133q-9 -18 -2 -35z" />
<glyph unicode="&#xee;" horiz-adv-x="464" d="M-12 1186q6 -12 28 -12h103l117 176l92 -140q16 -23 26 -30q12 -6 33 -6h111q-6 16 -35 67q-18 37 -39 72q-13 27 -41 67q-6 12 -35 58q-20 39 -55 39h-141q-24 -35 -86 -129q-39 -64 -74 -127q-10 -20 -4 -35zM129 47q0 -47 49 -47h158v995q0 47 -49 47h-158v-995z" />
<glyph unicode="&#xef;" horiz-adv-x="464" d="M-74 1319q0 -57 29 -86q31 -25 90 -25q60 0 90 27q27 24 27 84q0 63 -29 86q-25 25 -88 25q-62 0 -92 -27q-27 -24 -27 -84zM129 47q0 -47 49 -47h158v995q0 47 -49 47h-158v-995zM309 1319q0 -57 29 -86q31 -25 90 -25q60 0 90 27q27 24 27 84q0 63 -29 86 q-25 25 -88 25q-62 0 -92 -27q-27 -24 -27 -84z" />
<glyph unicode="&#xf0;" horiz-adv-x="1069" d="M100 502q0 -100 19 -205q18 -93 67 -166q50 -71 136 -115q81 -41 215 -41q131 0 213 43q80 41 133 119q47 73 65 178q19 111 19 228q0 205 -58 385q-57 189 -164 334l179 53l-19 78q-6 29 -35 26q-29 0 -53 -8l-153 -45q-19 21 -48 47q-31 31 -47 45q-18 15 -28 17 q-8 4 -35 4h-158q43 -34 82 -76q38 -35 74 -84l-201 -57l19 -78q9 -27 34 -27q40 4 54 8l174 49q81 -115 125 -245q-87 47 -215 47q-188 0 -293 -123q-101 -122 -101 -391zM305 502q0 96 12 164t39 112q29 45 72 66q39 20 115 20q53 0 100 -12q38 -9 92 -37q2 -10 6.5 -31.5 t6.5 -31.5q5 -24 8 -64q4 -23 4 -76q2 -29 2 -98q0 -64 -6 -131q-7 -74 -27 -121q-21 -55 -67 -92q-41 -35 -127 -35q-69 0 -119 29q-47 32 -70 80q-25 54 -33 116q-8 90 -8 142z" />
<glyph unicode="&#xf1;" horiz-adv-x="1073" d="M125 47q0 -47 49 -47h158v788q36 36 94 70q54 33 143 33q90 0 131 -47q45 -45 45 -152v-645q0 -20 15 -35q15 -12 35 -12h157v709q0 164 -71 260q-68 96 -240 96q-198 0 -326 -137l-8 63q-3 33 -20 41q-13 10 -37 10h-125v-995zM225 1241q0 -27 6 -39q5 -10 29 -10h92 q0 8 1 23t1 22q4 32 6 37q6 16 15 26q11 11 31 11q16 0 22 -2q4 0 18 -9q12 -6 27 -18q21 -14 41 -29q34 -24 72 -45q45 -20 94 -20q89 0 131 57q41 55 41 144q0 26 -6 38q-6 11 -29 11h-92q0 -49 -8 -82q-6 -37 -45 -37q-4 0 -11.5 1t-11.5 1q-6 2 -18 8q-2 1 -11 7.5 t-16 11.5q-5 4 -19 13t-22 15q-38 30 -71 45q-38 21 -95 21q-88 0 -131 -58q-41 -56 -41 -143z" />
<glyph unicode="&#xf2;" horiz-adv-x="1077" d="M100 522q0 -284 105 -416q107 -131 334 -131q228 0 335 131q103 129 103 416q0 285 -105 414q-104 131 -333 131q-232 0 -336 -131q-103 -127 -103 -414zM283 1477l184 -267q23 -36 63 -36h113q-63 161 -104 258q-9 26 -25 36q-9 9 -41 9h-190zM309 522q0 93 15 185 q16 77 41 118q29 45 71 62q46 18 103 18q61 0 104 -18q45 -17 72 -64q29 -42 41 -116q12 -59 12 -185q0 -117 -14 -188q-12 -74 -41 -119q-27 -44 -72 -61q-41 -17 -102 -17q-56 0 -105 19q-42 17 -72 61q-24 42 -40 119q-13 83 -13 186z" />
<glyph unicode="&#xf3;" horiz-adv-x="1077" d="M100 522q0 -284 105 -416q107 -131 334 -131q228 0 335 131q103 129 103 416q0 285 -105 414q-104 131 -333 131q-232 0 -336 -131q-103 -127 -103 -414zM309 522q0 93 15 185q16 77 41 118q29 45 71 62q46 18 103 18q61 0 104 -18q45 -17 72 -64q29 -42 41 -116 q12 -59 12 -185q0 -117 -14 -188q-12 -74 -41 -119q-27 -44 -72 -61q-41 -17 -102 -17q-56 0 -105 19q-42 17 -72 61q-24 42 -40 119q-13 83 -13 186zM442 1186q9 -12 29 -12h104l168 217q3 5 11 15t10 15q8 13 8 29q0 27 -35 27h-168q-37 -63 -65 -123q-27 -55 -60 -133 q-9 -18 -2 -35z" />
<glyph unicode="&#xf4;" horiz-adv-x="1077" d="M100 522q0 -284 105 -416q107 -131 334 -131q228 0 335 131q103 129 103 416q0 285 -105 414q-104 131 -333 131q-232 0 -336 -131q-103 -127 -103 -414zM291 1186q6 -12 28 -12h103l117 176l92 -140q16 -23 26 -30q12 -6 33 -6h111q-6 16 -35 67q-18 37 -39 72 q-13 27 -41 67q-6 12 -35 58q-20 39 -55 39h-141q-24 -35 -86 -129q-39 -64 -74 -127q-10 -20 -4 -35zM309 522q0 93 15 185q16 77 41 118q29 45 71 62q46 18 103 18q61 0 104 -18q45 -17 72 -64q29 -42 41 -116q12 -59 12 -185q0 -117 -14 -188q-12 -74 -41 -119 q-27 -44 -72 -61q-41 -17 -102 -17q-56 0 -105 19q-42 17 -72 61q-24 42 -40 119q-13 83 -13 186z" />
<glyph unicode="&#xf5;" horiz-adv-x="1077" d="M100 522q0 -284 105 -416q107 -131 334 -131q228 0 335 131q103 129 103 416q0 285 -105 414q-104 131 -333 131q-232 0 -336 -131q-103 -127 -103 -414zM225 1241q0 -27 6 -39q5 -10 29 -10h92q0 8 1 23t1 22q4 32 6 37q6 16 15 26q11 11 31 11q16 0 22 -2q4 0 18 -9 q12 -6 27 -18q21 -14 41 -29q34 -24 72 -45q45 -20 94 -20q89 0 131 57q41 55 41 144q0 26 -6 38q-6 11 -29 11h-92q0 -49 -8 -82q-6 -37 -45 -37q-4 0 -11.5 1t-11.5 1q-6 2 -18 8q-2 1 -11 7.5t-16 11.5q-5 4 -19 13t-22 15q-38 30 -71 45q-38 21 -95 21q-88 0 -131 -58 q-41 -56 -41 -143zM309 522q0 93 15 185q16 77 41 118q29 45 71 62q46 18 103 18q61 0 104 -18q45 -17 72 -64q29 -42 41 -116q12 -59 12 -185q0 -117 -14 -188q-12 -74 -41 -119q-27 -44 -72 -61q-41 -17 -102 -17q-56 0 -105 19q-42 17 -72 61q-24 42 -40 119 q-13 83 -13 186z" />
<glyph unicode="&#xf6;" horiz-adv-x="1077" d="M100 522q0 -284 105 -416q107 -131 334 -131q228 0 335 131q103 129 103 416q0 285 -105 414q-104 131 -333 131q-232 0 -336 -131q-103 -127 -103 -414zM229 1319q0 -57 29 -86q31 -25 90 -25q60 0 90 27q27 24 27 84q0 63 -29 86q-25 25 -88 25q-62 0 -92 -27 q-27 -24 -27 -84zM309 522q0 93 15 185q16 77 41 118q29 45 71 62q46 18 103 18q61 0 104 -18q45 -17 72 -64q29 -42 41 -116q12 -59 12 -185q0 -117 -14 -188q-12 -74 -41 -119q-27 -44 -72 -61q-41 -17 -102 -17q-56 0 -105 19q-42 17 -72 61q-24 42 -40 119 q-13 83 -13 186zM612 1319q0 -57 29 -86q31 -25 90 -25q60 0 90 27q27 24 27 84q0 63 -29 86q-25 25 -88 25q-62 0 -92 -27q-27 -24 -27 -84z" />
<glyph unicode="&#xf7;" d="M139 662q0 -48 49 -48h770v125q0 25 -11 36t-36 11h-772v-124zM426 356q0 -59 29 -88q33 -26 94 -26t94 26q29 26 29 88q0 119 -123 119q-65 0 -94 -29t-29 -90zM426 1040q0 -58 29 -90q29 -26 94 -26q63 0 94 28q29 29 29 88q0 62 -31 90q-27 27 -92 27t-94 -29t-29 -88 z" />
<glyph unicode="&#xf8;" horiz-adv-x="1077" d="M66 -57q9 -15 30 -15l86 -2l86 119q106 -70 271 -70q228 0 335 131q103 129 103 416q0 262 -84 389l117 162q12 15 2 29q-5 12 -27 12h-92l-86 -117q-56 40 -119 54q-57 16 -149 16q-232 0 -336 -131q-103 -127 -103 -414q0 -253 84 -387l-112 -155q-12 -18 -6 -37z M309 522q0 100 13 180q12 74 40 119q32 49 72 66q40 18 105 18q57 0 92 -14q41 -12 67 -45l-374 -518q-4 19 -11 82q-4 74 -4 112zM377 197l375 518q11 -34 14 -86q2 -16 2 -107q0 -108 -12 -182t-41 -119q-28 -45 -72 -65q-46 -19 -104 -19q-41 0 -95 15q-35 13 -67 45z " />
<glyph unicode="&#xf9;" horiz-adv-x="1073" d="M121 334q0 -81 18 -148q17 -63 54 -112q36 -44 96 -72q64 -25 143 -25q197 0 326 138l8 -64q6 -30 20 -41q20 -10 37 -10h125v995q0 47 -49 47h-158v-788q-33 -32 -94 -70q-54 -32 -143 -32q-84 0 -131 47q-45 51 -45 151v645q0 23 -15 35q-12 12 -34 12h-158v-708z M279 1477l184 -267q23 -36 63 -36h113q-63 161 -104 258q-9 26 -25 36q-9 9 -41 9h-190z" />
<glyph unicode="&#xfa;" horiz-adv-x="1073" d="M121 334q0 -81 18 -148q17 -63 54 -112q36 -44 96 -72q64 -25 143 -25q197 0 326 138l8 -64q6 -30 20 -41q20 -10 37 -10h125v995q0 47 -49 47h-158v-788q-33 -32 -94 -70q-54 -32 -143 -32q-84 0 -131 47q-45 51 -45 151v645q0 23 -15 35q-12 12 -34 12h-158v-708z M438 1186q9 -12 29 -12h104l168 217q3 5 11 15t10 15q8 13 8 29q0 27 -35 27h-168q-37 -63 -65 -123q-27 -55 -60 -133q-9 -18 -2 -35z" />
<glyph unicode="&#xfb;" horiz-adv-x="1073" d="M121 334q0 -81 18 -148q17 -63 54 -112q36 -44 96 -72q64 -25 143 -25q197 0 326 138l8 -64q6 -30 20 -41q20 -10 37 -10h125v995q0 47 -49 47h-158v-788q-33 -32 -94 -70q-54 -32 -143 -32q-84 0 -131 47q-45 51 -45 151v645q0 23 -15 35q-12 12 -34 12h-158v-708z M287 1186q6 -12 28 -12h103l117 176l92 -140q16 -23 26 -30q12 -6 33 -6h111q-6 16 -35 67q-18 37 -39 72q-13 27 -41 67q-6 12 -35 58q-20 39 -55 39h-141q-24 -35 -86 -129q-39 -64 -74 -127q-10 -20 -4 -35z" />
<glyph unicode="&#xfc;" horiz-adv-x="1073" d="M121 334q0 -81 18 -148q17 -63 54 -112q36 -44 96 -72q64 -25 143 -25q197 0 326 138l8 -64q6 -30 20 -41q20 -10 37 -10h125v995q0 47 -49 47h-158v-788q-33 -32 -94 -70q-54 -32 -143 -32q-84 0 -131 47q-45 51 -45 151v645q0 23 -15 35q-12 12 -34 12h-158v-708z M225 1319q0 -57 29 -86q31 -25 90 -25q60 0 90 27q27 24 27 84q0 63 -29 86q-25 25 -88 25q-62 0 -92 -27q-27 -24 -27 -84zM608 1319q0 -57 29 -86q31 -25 90 -25q60 0 90 27q27 24 27 84q0 63 -29 86q-25 25 -88 25q-62 0 -92 -27q-27 -24 -27 -84z" />
<glyph unicode="&#xfd;" horiz-adv-x="983" d="M55 1042q20 -139 51 -258q59 -203 80 -264q60 -160 103 -260q58 -128 125 -244q-10 -20 -29 -52t-25 -42q-22 -37 -53 -65q-27 -24 -67 -39q-41 -13 -88 -13h-35q-5 0 -20 1t-23 1v-94q0 -37 35 -55q15 -6 45 -12q20 -2 55 -2q63 0 125 24q57 22 121 86q55 57 120 172 q70 126 130 277q50 120 106 309q51 164 88 381q2 10 5 30t5 29q4 23 4 52q0 17 -8 28q-5 10 -35 10h-153q-27 -227 -80 -444q-51 -223 -127 -401q-73 178 -94 233q-40 106 -62 184q-25 91 -43 174q-16 77 -39 207q-3 18 -12 33q-5 14 -39 14h-166zM395 1186q9 -12 29 -12 h104l168 217q3 5 11 15t10 15q8 13 8 29q0 27 -35 27h-168q-37 -63 -65 -123q-27 -55 -60 -133q-9 -18 -2 -35z" />
<glyph unicode="&#xfe;" horiz-adv-x="1087" d="M145 -301q0 -47 50 -47h157v399q53 -26 99 -43q65 -20 147 -20q200 0 293 131q94 131 94 411q0 287 -98 412q-96 125 -264 125q-91 0 -158 -27q-69 -26 -113 -59v430q0 59 -61 59h-146v-1771zM352 195v643q47 31 90 47q50 20 115 20q113 0 168 -88q53 -82 53 -289 q0 -111 -14 -180q-11 -64 -45 -117q-32 -47 -74 -63q-43 -18 -108 -18q-55 0 -101 12q-26 7 -84 33z" />
<glyph unicode="&#xff;" horiz-adv-x="983" d="M55 1042q20 -139 51 -258q59 -203 80 -264q60 -160 103 -260q58 -128 125 -244q-10 -20 -29 -52t-25 -42q-22 -37 -53 -65q-27 -24 -67 -39q-41 -13 -88 -13h-35q-5 0 -20 1t-23 1v-94q0 -37 35 -55q15 -6 45 -12q20 -2 55 -2q63 0 125 24q57 22 121 86q55 57 120 172 q70 126 130 277q50 120 106 309q51 164 88 381q2 10 5 30t5 29q4 23 4 52q0 17 -8 28q-5 10 -35 10h-153q-27 -227 -80 -444q-51 -223 -127 -401q-73 178 -94 233q-40 106 -62 184q-25 91 -43 174q-16 77 -39 207q-3 18 -12 33q-5 14 -39 14h-166zM184 1319q0 -57 29 -86 q31 -25 90 -25q60 0 90 27q27 24 27 84q0 63 -29 86q-25 25 -88 25q-62 0 -92 -27q-27 -24 -27 -84zM567 1319q0 -57 29 -86q31 -25 90 -25q60 0 90 27q27 24 27 84q0 63 -29 86q-25 25 -88 25q-62 0 -92 -27q-27 -24 -27 -84z" />
<glyph unicode="&#x152;" horiz-adv-x="1656" d="M115 709q0 -223 39 -373q42 -145 106 -221q70 -79 168 -109q110 -29 221 -29q38 0 96 7q63 7 97 16h733v129q0 47 -49 47h-514v453h487v131q0 47 -49 47h-438v436h540v129q0 47 -49 47h-661q-38 11 -88 17q-29 4 -90 4q-117 0 -222 -31q-100 -30 -174 -113 q-66 -72 -112 -223q-41 -143 -41 -364zM332 709q0 161 18 266q18 106 60 170q46 68 102 90q65 27 152 27q80 0 139 -23v-1061q-36 -11 -74 -16q-27 -4 -80 -4q-84 0 -151 26q-58 26 -97 92q-35 62 -53 170q-16 115 -16 263z" />
<glyph unicode="&#x153;" horiz-adv-x="1628" d="M100 522q0 -283 103 -416q107 -131 319 -131q236 0 324 172q44 -86 125 -129q87 -41 211 -41q87 0 184 17q89 19 131 35v82q0 22 -12 34q-12 15 -37 15q-34 0 -86 -8q-83 -9 -154 -9q-80 0 -135 19q-53 19 -80 53q-29 36 -41 96q-6 29 -14 140h569q11 27 17 81q6 56 6 93 q0 101 -17 176q-15 83 -57 139q-43 61 -113 94q-62 33 -182 33q-109 0 -188 -43q-78 -43 -127 -133q-84 176 -324 176q-217 0 -321 -131q-101 -128 -101 -414zM305 522q0 99 14 185q15 75 39 118q25 43 70 62q44 18 100 18q58 0 101 -18t67 -64q27 -44 39 -116 q13 -80 13 -185t-13 -188q-12 -72 -39 -119q-23 -42 -69 -61q-41 -17 -99 -17q-56 0 -102 19q-41 17 -68 61q-28 54 -41 119q-12 76 -12 186zM938 588q3 80 14 135q12 60 35 102t66 64q40 22 98 22q118 0 158 -67q39 -61 39 -197v-29q0 -16 -2 -30h-408z" />
<glyph unicode="&#x178;" horiz-adv-x="1075" d="M39 1419q34 -116 74 -225q10 -25 39 -100t47 -117q38 -84 104 -215q25 -47 127 -223v-492q0 -47 49 -47h166v539q76 129 115 200q48 85 96 195q50 106 84 199q34 89 76 219q12 29 -2 49q-10 18 -41 18h-160q-7 -45 -37 -139q-15 -50 -63 -178q-60 -151 -80 -195 q-51 -117 -90 -186q-28 51 -86 174q-69 164 -72 170q-22 63 -57 158q-5 15 -21.5 65.5t-23.5 75.5q-6 30 -19 43q-7 12 -39 12h-186zM229 1663q0 -57 29 -86q31 -25 90 -25q60 0 90 27q27 24 27 84q0 63 -29 86q-25 25 -88 25q-62 0 -92 -27q-27 -24 -27 -84zM612 1663 q0 -57 29 -86q31 -25 90 -25q60 0 90 27q27 24 27 84q0 63 -29 86q-25 25 -88 25q-62 0 -92 -27q-27 -24 -27 -84z" />
<glyph unicode="&#x2c6;" horiz-adv-x="888" d="M197 1186q6 -12 28 -12h103l116 176l93 -140q16 -23 26 -30q12 -6 33 -6h111q-6 16 -35 67q-18 37 -39 72q-13 27 -41 67q-6 12 -35 58q-20 39 -55 39h-142q-24 -35 -86 -129q-27 -45 -73 -127q-10 -20 -4 -35z" />
<glyph unicode="&#x2dc;" horiz-adv-x="888" d="M131 1241q0 -27 6 -39q5 -10 29 -10h92q0 8 1 23t1 22q4 32 6 37q6 16 15 26q11 11 30 11q17 0 23 -2q4 0 18 -9q12 -6 27 -18q21 -14 41 -29q34 -24 72 -45q45 -20 94 -20q89 0 131 57q41 55 41 144q0 26 -6 38q-6 11 -29 11h-92q0 -49 -8 -82q-6 -37 -45 -37 q-4 0 -11.5 1t-11.5 1q-6 2 -18 8q-2 1 -11 7.5t-16 11.5q-5 4 -19 13t-22 15q-37 29 -72 45q-38 21 -94 21q-88 0 -131 -58q-41 -56 -41 -143z" />
<glyph unicode="&#x2000;" horiz-adv-x="941" />
<glyph unicode="&#x2001;" horiz-adv-x="1882" />
<glyph unicode="&#x2002;" horiz-adv-x="941" />
<glyph unicode="&#x2003;" horiz-adv-x="1882" />
<glyph unicode="&#x2004;" horiz-adv-x="627" />
<glyph unicode="&#x2005;" horiz-adv-x="470" />
<glyph unicode="&#x2006;" horiz-adv-x="313" />
<glyph unicode="&#x2007;" horiz-adv-x="313" />
<glyph unicode="&#x2008;" horiz-adv-x="235" />
<glyph unicode="&#x2009;" horiz-adv-x="376" />
<glyph unicode="&#x200a;" horiz-adv-x="104" />
<glyph unicode="&#x2010;" horiz-adv-x="788" d="M90 514q0 -47 49 -47h559v137q0 47 -49 47h-559v-137z" />
<glyph unicode="&#x2011;" horiz-adv-x="788" d="M90 514q0 -47 49 -47h559v137q0 47 -49 47h-559v-137z" />
<glyph unicode="&#x2012;" horiz-adv-x="788" d="M90 514q0 -47 49 -47h559v137q0 47 -49 47h-559v-137z" />
<glyph unicode="&#x2013;" horiz-adv-x="1032" d="M0 559h1032v172h-1032v-172z" />
<glyph unicode="&#x2014;" horiz-adv-x="2054" d="M0 559h2054v172h-2054v-172z" />
<glyph unicode="&#x2018;" horiz-adv-x="444" d="M90 1067q0 -63 31 -94q29 -29 102 -29q72 0 103 31q28 28 28 94q0 46 -20 72q-16 26 -68 39l76 182q6 18 6 31q0 28 -33 28h-84l-67 -135q-36 -74 -53 -121q-21 -65 -21 -98z" />
<glyph unicode="&#x2019;" horiz-adv-x="444" d="M90 1300q0 -36 21 -71q22 -28 67 -39l-76 -182q-6 -18 -6 -31q0 -29 33 -29h84l68 135q35 65 53 121q20 56 20 99q0 64 -30 94q-28 28 -103 28q-72 0 -102 -30q-29 -29 -29 -95z" />
<glyph unicode="&#x201a;" horiz-adv-x="444" d="M90 127q0 -37 21 -72q22 -28 67 -39l-76 -182q-6 -18 -6 -31q0 -28 33 -28h84l68 135q35 65 53 121q20 56 20 98q0 64 -30 94q-29 29 -103 29q-71 0 -102 -31q-29 -29 -29 -94z" />
<glyph unicode="&#x201c;" horiz-adv-x="804" d="M90 1067q0 -63 31 -94q29 -29 102 -29q72 0 103 31q28 28 28 94q0 46 -20 72q-16 26 -68 39l76 182q6 18 6 31q0 28 -33 28h-84l-67 -135q-36 -74 -53 -121q-21 -65 -21 -98zM451 1067q0 -64 30 -94q29 -29 103 -29q71 0 102 31q29 29 29 94q0 45 -21 72q-16 27 -67 39 l75 182q7 21 7 31q0 28 -33 28h-84l-68 -135q-36 -74 -53 -121q-20 -62 -20 -98z" />
<glyph unicode="&#x201d;" horiz-adv-x="804" d="M90 1300q0 -36 21 -71q22 -28 67 -39l-76 -182q-6 -18 -6 -31q0 -29 33 -29h84l68 135q35 65 53 121q20 56 20 99q0 64 -30 94q-28 28 -103 28q-72 0 -102 -30q-29 -29 -29 -95zM451 1300q0 -38 20 -71q22 -28 68 -39l-76 -182q-6 -18 -6 -31q0 -29 32 -29h84l68 135 q35 65 53 121q21 58 21 99q0 63 -31 94q-28 28 -102 28q-73 0 -103 -30q-28 -28 -28 -95z" />
<glyph unicode="&#x201e;" horiz-adv-x="804" d="M90 127q0 -37 21 -72q22 -28 67 -39l-76 -182q-6 -18 -6 -31q0 -28 33 -28h84l68 135q35 65 53 121q20 56 20 98q0 64 -30 94q-29 29 -103 29q-71 0 -102 -31q-29 -29 -29 -94zM451 127q0 -39 20 -72q22 -28 68 -39l-76 -182q-6 -18 -6 -31q0 -28 32 -28h84l68 135 q35 65 53 121q21 58 21 98q0 63 -31 94q-29 29 -102 29q-72 0 -103 -31q-28 -28 -28 -94z" />
<glyph unicode="&#x2022;" horiz-adv-x="854" d="M147 709q0 -142 72 -211q73 -64 209 -64q137 0 209 66q70 64 70 209q0 148 -72 211q-66 63 -207 63q-140 0 -211 -65q-70 -64 -70 -209z" />
<glyph unicode="&#x2026;" horiz-adv-x="1533" d="M119 119q0 -70 33 -103q32 -28 104 -28q74 0 104 30q33 29 33 101q0 71 -33 100q-29 29 -104 29q-68 0 -104 -31q-33 -33 -33 -98zM631 119q0 -70 33 -103q32 -28 104 -28q74 0 104 30q33 29 33 101q0 71 -33 100q-29 29 -104 29q-68 0 -104 -31q-33 -33 -33 -98z M1141 119q0 -70 33 -103q32 -28 104 -28q74 0 104 30q33 29 33 101q0 71 -33 100q-29 29 -104 29q-68 0 -104 -31q-33 -33 -33 -98z" />
<glyph unicode="&#x202f;" horiz-adv-x="376" />
<glyph unicode="&#x2039;" horiz-adv-x="522" d="M82 530l135 -288l9.5 -19t12.5 -24.5t11 -22.5q18 -35 53 -35h141l-168 389q32 63 66 146q20 49 66 143q2 4 12 29q2 7 5.5 14.5t4.5 9.5q7 21 -2 33q-6 15 -29 15h-127z" />
<glyph unicode="&#x203a;" horiz-adv-x="522" d="M82 920l168 -390q-41 -84 -66 -145q-32 -78 -65 -143q-10 -20 -13 -29l-10 -25q-5 -15 2 -32q11 -15 29 -15h127l190 389l-135 289q-2 5 -16 33q-8 24 -17 33q-10 17 -22 24q-11 11 -31 11h-141z" />
<glyph unicode="&#x205f;" horiz-adv-x="470" />
<glyph unicode="&#x20ac;" d="M86 539q0 -45 45 -45h98q30 -259 150 -379q120 -117 338 -117q103 0 188 16q85 19 139 39v99q0 49 -49 49q-40 0 -96 -11q-68 -10 -147 -10q-59 0 -119 13q-49 11 -94 47q-39 36 -68 96q-27 61 -39 158h414v92q0 43 -45 43h-379q0 8 -1 23.5t-1 23.5v51v45q0 8 1 23t1 22 h424v92q0 43 -45 43h-371q12 86 37 148q21 54 61 94q38 35 97 51q49 15 131 15q76 0 147 -9q81 -7 129 -14v94q0 35 -28 55q-23 20 -72 33q-53 15 -98 17q-37 4 -105 4q-117 0 -203 -29q-89 -28 -147 -86q-61 -58 -98 -149q-37 -90 -52 -224h-143v-90q0 -45 45 -45h86 q0 -7 -1 -22t-1 -23v-45v-51q0 -8 1 -23.5t1 -23.5h-131v-90z" />
<glyph unicode="&#x2122;" horiz-adv-x="1495" d="M45 1331q0 -37 39 -37h178v-602q0 -37 41 -37h107v639h211v88q0 37 -41 37h-535v-88zM678 692q0 -37 41 -37h96q0 26 1 80t1 82q1 28 2 84t2 84q4 98 4 143q1 24 2 70.5t2 69.5l144 -389q7 -17 12 -25q12 -8 31 -8h76l155 422q4 -97 8 -291q7 -171 7 -285q0 -37 38 -37 h99q0 174 -13 377q-11 227 -20 350q0 20 -10 27q-8 10 -29 10h-123l-162 -432l-147 397q-11 35 -45 35h-139q-4 -72 -12 -204.5t-11 -190.5q-8 -235 -10 -332z" />
<glyph unicode="&#x25fc;" horiz-adv-x="1044" d="M0 0v1044h1044v-1044h-1044z" />
<glyph unicode="&#xfb01;" horiz-adv-x="1081" d="M63 950q0 -26 9 -53q9 -18 41 -18h71v-832q0 -47 47 -47h158v879h354v-832q0 -20 15 -35q15 -12 35 -12h157v995q0 47 -49 47h-512v136q0 65 21 112q19 39 96 39q33 0 47 -2q21 0 61 -6v88q0 30 -18 45q-18 18 -45 27q-20 10 -57 10q-20 2 -52 2q-80 0 -127 -23 q-49 -21 -79 -67q-29 -42 -41 -111q-11 -59 -11 -145v-105h-121v-92zM721 1319q0 -60 31 -88q31 -25 96 -25q62 0 96 27q31 28 31 86q0 61 -31 86q-30 27 -96 27q-68 0 -98 -27q-29 -23 -29 -86z" />
<glyph unicode="&#xfb02;" horiz-adv-x="1155" d="M63 926q0 -47 50 -47h71v-832q0 -47 47 -47h158v879h354v-586q0 -151 48 -230q51 -75 165 -75q42 0 76 6q42 7 70 14v94q0 33 -19 39q-22 11 -49 11q-47 3 -65 18q-19 19 -19 72v1181q0 47 -49 47h-158v-428h-354v136q0 65 21 112q19 39 96 39q33 0 47 -2q21 0 61 -6v88 q0 30 -20 47q-20 20 -47 25q-30 10 -55 10q-18 2 -50 2q-80 0 -127 -23q-49 -21 -79 -67q-29 -42 -41 -111q-11 -59 -11 -145v-105h-121v-116z" />
</font>
</defs>
</svg>
